<svg width="30" height="30" viewBox="0 0 30 30" fill="none" xmlns="http://www.w3.org/2000/svg">
<path d="M26.0426 3H4.21277C3.89112 3 3.58265 3.1317 3.35521 3.36612C3.12777 3.60054 3 3.91848 3 4.25V26.75C3 27.0815 3.12777 27.3995 3.35521 27.6339C3.58265 27.8683 3.89112 28 4.21277 28H26.0426C26.3642 28 26.6727 27.8683 26.9001 27.6339C27.1275 27.3995 27.2553 27.0815 27.2553 26.75V4.25C27.2553 3.91848 27.1275 3.60054 26.9001 3.36612C26.6727 3.1317 26.3642 3 26.0426 3ZM10.2766 25.5H5.42553V5.5H10.2766V25.5ZM24.8298 25.5H12.7021V16.75H24.8298V25.5ZM24.8298 14.25H12.7021V5.5H24.8298V14.25Z" fill="#6563FF"/>
</svg>
