<svg width="30" height="30" viewBox="0 0 30 30" fill="none" xmlns="http://www.w3.org/2000/svg">
<g clip-path="url(#clip0_6249_303)">
<path d="M11.8584 6.42871C12.1441 6.42877 12.418 6.54146 12.6201 6.74219C12.8223 6.94312 12.9365 7.21584 12.9365 7.5V17.1426H22.6387C22.9244 17.1427 23.1983 17.2562 23.4004 17.457C23.6024 17.6579 23.7167 17.9299 23.7168 18.2139C23.7168 21.3396 22.4669 24.3376 20.2432 26.5479C18.0194 28.758 15.0033 29.9999 11.8584 30C8.71349 30 5.69745 28.758 3.47363 26.5479C1.2498 24.3376 0 21.3396 0 18.2139C9.94505e-05 15.0882 1.24989 12.091 3.47363 9.88086C5.69746 7.67064 8.71344 6.42871 11.8584 6.42871ZM10.7803 8.63574C8.96405 8.83658 7.24146 9.54289 5.81152 10.6738C4.38161 11.8048 3.30203 13.3144 2.69727 15.0283C2.09256 16.7422 1.98755 18.5915 2.39355 20.3623C2.79962 22.133 3.70016 23.7539 4.99219 25.0381C6.28435 26.3224 7.91555 27.2175 9.69727 27.6211C11.4789 28.0246 13.3391 27.9203 15.0635 27.3193C16.7879 26.7183 18.3065 25.6448 19.4443 24.2236C20.5821 22.8026 21.293 21.0911 21.4951 19.2861H12.9365C12.3649 19.2861 11.8164 19.0599 11.4121 18.6582C11.0078 18.2563 10.7803 17.7109 10.7803 17.1426V8.63574ZM17.248 0C20.393 0 23.409 1.24195 25.6328 3.45215C27.8566 5.6624 29.1064 8.66037 29.1064 11.7861C29.1063 12.07 28.9928 12.3422 28.791 12.543C28.5888 12.7439 28.3142 12.8574 28.0283 12.8574H18.3262C17.7544 12.8574 17.2061 12.6313 16.8018 12.2295C16.3974 11.8276 16.1699 11.2822 16.1699 10.7139V1.07129C16.17 0.787179 16.2842 0.514376 16.4863 0.313477C16.6884 0.112812 16.9624 3.50837e-05 17.248 0ZM18.3262 10.7139H26.8857C26.6404 8.54181 25.6595 6.51725 24.1045 4.97168C22.5493 3.42599 20.5118 2.45085 18.3262 2.20703V10.7139Z" fill="#6563FF"/>
</g>
<defs>
<clipPath id="clip0_6249_303">
<rect width="30" height="30" fill="white"/>
</clipPath>
</defs>
</svg>
