<svg width="30" height="30" viewBox="0 0 30 30" fill="none" xmlns="http://www.w3.org/2000/svg">
<path d="M11.2469 13.6185C11.1332 13.7348 11.043 13.873 10.9814 14.0253C10.9199 14.1777 10.8882 14.341 10.8882 14.506C10.8882 14.6711 10.9199 14.8344 10.9814 14.9868C11.043 15.1391 11.1332 15.2773 11.2469 15.3935C11.4741 15.6264 11.7815 15.757 12.1019 15.757C12.4223 15.757 12.7297 15.6264 12.9569 15.3935C13.0706 15.2773 13.1608 15.1391 13.2224 14.9868C13.2839 14.8344 13.3156 14.6711 13.3156 14.506C13.3156 14.341 13.2839 14.1777 13.2224 14.0253C13.1608 13.873 13.0706 13.7348 12.9569 13.6185C12.7297 13.3857 12.4223 13.2551 12.1019 13.2551C11.7815 13.2551 11.4741 13.3857 11.2469 13.6185ZM14.2424 16.7185C14.0166 16.9528 13.8898 17.2696 13.8898 17.5998C13.8898 17.93 14.0166 18.2468 14.2424 18.481C14.3552 18.5982 14.4893 18.6912 14.6371 18.7547C14.7849 18.8181 14.9434 18.8508 15.1035 18.8508C15.2636 18.8508 15.4221 18.8181 15.5699 18.7547C15.7177 18.6912 15.8518 18.5982 15.9646 18.481C16.1905 18.2468 16.3172 17.93 16.3172 17.5998C16.3172 17.2696 16.1905 16.9528 15.9646 16.7185C15.8518 16.6014 15.7177 16.5084 15.5699 16.4449C15.4221 16.3815 15.2636 16.3488 15.1035 16.3488C14.9434 16.3488 14.7849 16.3815 14.6371 16.4449C14.4893 16.5084 14.3552 16.6014 14.2424 16.7185ZM25.1573 4.21855C23.8381 2.84758 22.0567 2.05387 20.1839 2.00264C18.3112 1.95142 16.4914 2.64663 15.1035 3.94355C13.722 2.66177 11.9169 1.97352 10.0587 2.02001C8.20042 2.0665 6.42988 2.8442 5.11032 4.19355C3.79934 5.55585 3.04479 7.38422 3.00193 9.30249C2.95907 11.2207 3.63115 13.083 4.87989 14.506C3.94627 15.5818 3.33366 16.9125 3.11557 18.3382C2.89749 19.764 3.08318 21.2243 3.65039 22.544C4.21759 23.8637 5.1422 24.9866 6.31326 25.7781C7.48433 26.5696 8.8521 26.9959 10.2524 27.006C12.0476 27.008 13.7784 26.3168 15.1035 25.0685C16.4857 26.354 18.2934 27.0445 20.1545 26.998C22.0156 26.9515 23.7887 26.1715 25.1088 24.8185C26.4181 23.4546 27.1705 21.6254 27.2111 19.7071C27.2517 17.7889 26.5775 15.9275 25.3271 14.506C26.5775 13.0846 27.2517 11.2232 27.2111 9.30498C27.1705 7.38673 26.4181 5.55747 25.1088 4.19355L25.1573 4.21855ZM23.3867 5.96855C24.2301 6.86278 24.7188 8.0496 24.757 9.29611C24.7951 10.5426 24.3799 11.7588 23.5929 12.706L16.8499 5.75605C17.777 4.96322 18.9533 4.54718 20.1573 4.58632C21.3614 4.62547 22.51 5.11708 23.3867 5.96855ZM6.82032 23.0435C5.97692 22.1493 5.4882 20.9625 5.45005 19.716C5.41191 18.4695 5.8271 17.2533 6.61415 16.306L13.4056 23.306C12.4683 24.1036 11.279 24.5176 10.0644 24.4692C8.84986 24.4208 7.69509 23.9133 6.82032 23.0435ZM23.3867 23.0435C22.4659 23.9512 21.2409 24.4578 19.9667 24.4578C18.6926 24.4578 17.4675 23.9512 16.5467 23.0435L6.84457 13.0435C5.94106 12.1067 5.43392 10.8395 5.43392 9.51855C5.43392 8.19762 5.94106 6.93036 6.84457 5.99355C7.75348 5.06229 8.98299 4.53959 10.2646 4.53959C11.5462 4.53959 12.7757 5.06229 13.6846 5.99355L23.3867 15.9935C24.2902 16.9304 24.7974 18.1976 24.7974 19.5185C24.7974 20.8395 24.2902 22.1067 23.3867 23.0435ZM17.2501 13.6185C17.1364 13.7348 17.0462 13.873 16.9846 14.0253C16.9231 14.1777 16.8914 14.341 16.8914 14.506C16.8914 14.6711 16.9231 14.8344 16.9846 14.9868C17.0462 15.1391 17.1364 15.2773 17.2501 15.3935C17.4773 15.6264 17.7847 15.757 18.1051 15.757C18.4255 15.757 18.7329 15.6264 18.9601 15.3935C19.0738 15.2773 19.164 15.1391 19.2256 14.9868C19.2871 14.8344 19.3188 14.6711 19.3188 14.506C19.3188 14.341 19.2871 14.1777 19.2256 14.0253C19.164 13.873 19.0738 13.7348 18.9601 13.6185C18.7329 13.3857 18.4255 13.2551 18.1051 13.2551C17.7847 13.2551 17.4773 13.3857 17.2501 13.6185ZM14.2424 10.531C14.0166 10.7653 13.8898 11.0821 13.8898 11.4123C13.8898 11.7425 14.0166 12.0593 14.2424 12.2935C14.3552 12.4107 14.4893 12.5037 14.6371 12.5672C14.7849 12.6306 14.9434 12.6633 15.1035 12.6633C15.2636 12.6633 15.4221 12.6306 15.5699 12.5672C15.7177 12.5037 15.8518 12.4107 15.9646 12.2935C16.1905 12.0593 16.3172 11.7425 16.3172 11.4123C16.3172 11.0821 16.1905 10.7653 15.9646 10.531C15.8518 10.4139 15.7177 10.3209 15.5699 10.2574C15.4221 10.194 15.2636 10.1613 15.1035 10.1613C14.9434 10.1613 14.7849 10.194 14.6371 10.2574C14.4893 10.3209 14.3552 10.4139 14.2424 10.531Z" fill="#6563FF"/>
</svg>
