<svg width="24" height="24" viewBox="0 0 24 24" fill="none" xmlns="http://www.w3.org/2000/svg">
<path d="M15.5986 21.4658H8.26562V19.9658H15.5986V21.4658ZM12 2C15.866 2 19 5.13975 19 9.0127L18.9912 9.37305C18.8161 12.837 16.1316 15.637 12.7227 15.9873V19.2285H11.2227V15.9805C7.72261 15.593 5.00005 12.6223 5 9.0127L5.00879 8.65137C5.19644 4.94629 8.25493 2 12 2ZM12 3.5C8.96497 3.5 6.5 5.96563 6.5 9.0127C6.50006 12.0597 8.96501 14.5254 12 14.5254C15.035 14.5254 17.4999 12.0597 17.5 9.0127C17.5 5.96563 15.035 3.5 12 3.5Z" fill="#939393"/>
</svg>
