<svg width="30" height="30" viewBox="0 0 30 30" fill="none" xmlns="http://www.w3.org/2000/svg">
<path d="M24.8301 4C25.4733 4.00008 26.0901 4.26365 26.5449 4.73242C26.9997 5.20125 27.2549 5.83701 27.2549 6.5V9C27.2523 9.4362 27.1394 9.86408 26.9268 10.2412C26.714 10.6183 26.4095 10.9323 26.043 11.1504V24C26.043 24.663 25.7869 25.2987 25.332 25.7676C24.8772 26.2364 24.2604 26.5 23.6172 26.5H6.63867C5.99538 26.5 5.37773 26.2364 4.92285 25.7676C4.46814 25.2988 4.21289 24.6629 4.21289 24V11.1504C3.8463 10.9323 3.54088 10.6184 3.32812 10.2412C3.11551 9.86413 3.00255 9.43613 3 9V6.5C3 5.83711 3.25528 5.20123 3.70996 4.73242C4.16484 4.26358 4.78249 4 5.42578 4H24.8301ZM6.63867 11.5V24H23.6172V11.5H6.63867ZM19.9785 16.5H10.2764V14H19.9785V16.5ZM5.42578 6.5V9H24.8301V6.5H5.42578Z" fill="#6563FF"/>
</svg>
