<svg width="30" height="30" viewBox="0 0 30 30" fill="none" xmlns="http://www.w3.org/2000/svg">
<path d="M14.1862 0C14.4325 0 14.6457 0.0927734 14.8257 0.27832C15.0057 0.463867 15.0957 0.683594 15.0957 0.9375V11.25C15.0957 11.7676 15.001 12.251 14.8115 12.7002C14.622 13.1494 14.3615 13.5449 14.0298 13.8867C13.6982 14.2285 13.3098 14.4971 12.8644 14.6924C12.4191 14.8877 11.9501 14.9902 11.4574 15V29.0625C11.4574 29.3164 11.3674 29.5361 11.1874 29.7217C11.0074 29.9072 10.7942 30 10.5479 30C10.3015 30 10.0883 29.9072 9.90833 29.7217C9.72831 29.5361 9.6383 29.3164 9.6383 29.0625V15C9.13614 15 8.66714 14.9023 8.2313 14.707C7.79546 14.5117 7.41174 14.2432 7.08012 13.9014C6.7485 13.5596 6.48795 13.1641 6.29845 12.7148C6.10896 12.2656 6.00947 11.7773 6 11.25V0.9375C6 0.683594 6.09001 0.463867 6.27003 0.27832C6.45005 0.0927734 6.66323 0 6.90957 0C7.15592 0 7.3691 0.0927734 7.54912 0.27832C7.72914 0.463867 7.81915 0.683594 7.81915 0.9375V11.25C7.81915 11.5137 7.86652 11.7578 7.96127 11.9824C8.05602 12.207 8.18393 12.4023 8.345 12.5684C8.50607 12.7344 8.7003 12.8711 8.92769 12.9785C9.15509 13.0859 9.39195 13.1348 9.6383 13.125V0.9375C9.6383 0.683594 9.72831 0.463867 9.90833 0.27832C10.0883 0.0927734 10.3015 0 10.5479 0C10.7942 0 11.0074 0.0927734 11.1874 0.27832C11.3674 0.463867 11.4574 0.683594 11.4574 0.9375V13.125C11.7133 13.125 11.9501 13.0762 12.1681 12.9785C12.386 12.8809 12.5755 12.749 12.7365 12.583C12.8976 12.417 13.0303 12.2168 13.1345 11.9824C13.2387 11.748 13.2861 11.5039 13.2766 11.25V0.9375C13.2766 0.683594 13.3666 0.463867 13.5466 0.27832C13.7266 0.0927734 13.9398 0 14.1862 0ZM24.1915 0V29.0625C24.1915 29.3164 24.1015 29.5361 23.9215 29.7217C23.7414 29.9072 23.5283 30 23.2819 30C23.0356 30 22.8224 29.9072 22.6424 29.7217C22.4624 29.5361 22.3723 29.3164 22.3723 29.0625V20.625C22.0218 20.625 21.6428 20.6299 21.2354 20.6396C20.828 20.6494 20.4253 20.6445 20.0273 20.625C19.6294 20.6055 19.2409 20.5469 18.862 20.4492C18.483 20.3516 18.1513 20.2002 17.8671 19.9951C17.5829 19.79 17.3507 19.5117 17.1707 19.1602C16.9907 18.8086 16.9054 18.3594 16.9149 17.8125V6.5625C16.9149 5.6543 17.0807 4.80469 17.4123 4.01367C17.7439 3.22266 18.1987 2.5293 18.7767 1.93359C19.3546 1.33789 20.0273 0.869141 20.7948 0.527344C21.5623 0.185547 22.3913 0.00976563 23.2819 0H24.1915ZM22.3723 1.96289C21.8418 2.07031 21.3585 2.26562 20.9227 2.54883C20.4869 2.83203 20.1031 3.18359 19.7715 3.60352C19.4399 4.02344 19.1841 4.47754 19.0041 4.96582C18.8241 5.4541 18.734 5.98633 18.734 6.5625V17.8125C18.734 18.0664 18.8241 18.2861 19.0041 18.4717C19.1841 18.6572 19.3973 18.75 19.6436 18.75H22.3723V1.96289Z" fill="#6563FF"/>
</svg>
