<svg width="32" height="32" viewBox="0 0 32 32" fill="none" xmlns="http://www.w3.org/2000/svg">
<path d="M22.2705 31.7188H10.3213V29.7188H22.2705V31.7188ZM16.4062 0C22.7056 8.80541e-05 27.8125 5.11604 27.8125 11.4268L27.7979 12.0146C27.5047 17.8086 22.9029 22.461 17.1387 22.8271V28.0723H15.1387V22.7822C9.43591 22.1504 5.00004 17.3082 5 11.4268L5.01465 10.8389C5.31018 4.99603 9.98702 0.310841 15.8193 0.0146484L16.4062 0ZM16.4062 2C11.2148 2.00005 7 6.21719 7 11.4268C7.00005 16.6363 11.2148 20.8535 16.4062 20.8535C21.5976 20.8534 25.8125 16.6363 25.8125 11.4268C25.8125 6.21721 21.5977 2.00009 16.4062 2Z" fill="black"/>
</svg>
