<svg width="32" height="32" viewBox="0 0 32 32" fill="none" xmlns="http://www.w3.org/2000/svg">
<g clip-path="url(#clip0_6205_1075)">
<path d="M22.5813 6.54937C26.5172 10.8766 26.5662 17.443 22.7191 21.7818L26.4698 25.5096L25.0512 26.9194L21.2666 23.158C16.7548 26.7441 10.1357 26.4427 5.92992 22.263L5.51988 21.8348C1.41987 17.3277 1.53454 10.3891 5.87936 6.07093C10.3643 1.61357 17.6585 1.63606 22.1712 6.12118L22.5813 6.54937ZM20.7527 7.53104C17.0151 3.81633 10.9911 3.8103 7.29791 7.48079C3.60469 11.1514 3.61084 17.1384 7.34847 20.8532C11.0861 24.5676 17.1101 24.5739 20.8032 20.9034C24.4962 17.2329 24.4899 11.2458 20.7527 7.53104Z" fill="black"/>
</g>
<defs>
<clipPath id="clip0_6205_1075">
<rect width="32" height="32" fill="white"/>
</clipPath>
</defs>
</svg>
