<svg width="30" height="30" viewBox="0 0 30 30" fill="none" xmlns="http://www.w3.org/2000/svg">
<path d="M12.7021 3H17.5532C20.1264 3 22.5941 4.05357 24.4136 5.92893C26.2331 7.8043 27.2553 10.3478 27.2553 13C27.2553 15.6522 26.2331 18.1957 24.4136 20.0711C22.5941 21.9464 20.1264 23 17.5532 23V27.375C11.4894 24.875 3 21.125 3 13C3 10.3478 4.02219 7.8043 5.84169 5.92893C7.66119 4.05357 10.129 3 12.7021 3ZM15.1277 20.5H17.5532C19.4831 20.5 21.3339 19.7098 22.6985 18.3033C24.0631 16.8968 24.8298 14.9891 24.8298 13C24.8298 11.0109 24.0631 9.10322 22.6985 7.6967C21.3339 6.29018 19.4831 5.5 17.5532 5.5H12.7021C10.7723 5.5 8.92142 6.29018 7.5568 7.6967C6.19217 9.10322 5.42553 11.0109 5.42553 13C5.42553 17.5125 8.41136 20.4575 15.1277 23.6V20.5Z" fill="#6563FF"/>
</svg>
