<svg width="116" height="42" viewBox="0 0 116 42" fill="none" xmlns="http://www.w3.org/2000/svg">
<path d="M60.7981 13.7947H57.4669L55.5881 16.4967H58.9176L60.7981 13.7947ZM69.4397 20.9041C67.6947 21.0321 64.6115 22.4167 62.9322 25.442C61.2529 28.4672 61.2468 30.3348 61.2468 30.3348C61.2468 30.3348 62.1324 29.4736 63.4901 28.572C64.8478 27.6704 65.8582 27.35 65.8582 27.35C65.8582 27.35 66.1101 26.2393 66.7372 25.0776C67.3469 23.9476 68.3144 22.7711 69.5116 22.5042C71.9383 21.9624 70.7762 25.8908 68.9938 28.4524C68.0358 29.8291 64.6377 33.7856 61.7122 33.7856C58.7867 33.7856 58.2221 31.2839 58.8391 28.9447C59.4555 26.6061 60.3088 23.6347 64.5769 18.2357C68.845 12.8367 73.4648 9.63598 76.139 8.29093C78.8856 6.91029 80.0047 7.51534 80.0047 7.51534C80.0047 7.51534 76.4985 9.43084 74.5037 11.7354C72.5965 13.9381 71.4584 16.4166 72.3435 17.6312C73.1862 18.7884 76.1568 18.8101 79.4279 14.6212C82.6565 10.4862 81.8411 8.02746 81.8411 8.02746C81.8411 8.02746 82.2313 7.91475 82.4932 7.88361C84.0677 7.69774 85.329 8.06601 87.2819 8.95431C89.3279 9.88512 91.2909 11.378 93.9806 12.5994C94.7904 11.8125 95.6917 10.9766 96.6397 10.161C93.0136 8.59543 90.2609 6.36406 86.7045 6.15002C83.609 5.96415 81.1684 6.96466 81.1684 6.96466C81.1684 6.96466 80.2243 5.82426 77.3116 6.19649C74.3989 6.5692 65.4252 9.89699 57.7901 20.7414C50.8869 30.5463 54.1395 36.1653 59.1016 36.101C64.4805 36.0308 69.5974 30.7253 71.3291 26.35C73.0608 21.9748 71.0142 20.7889 69.4397 20.9041ZM79.9991 11.7932C79.0951 13.7478 77.7642 15.1136 76.4544 16.1566C74.7746 17.4947 73.8528 17.4497 73.4537 17.1808C72.4115 16.4769 73.8098 13.8224 76.2371 11.4487C78.6543 9.08432 80.7354 8.34877 80.7354 8.34877C80.7354 8.37645 81.0815 9.44962 79.9991 11.7932ZM109.952 8.94294C107.491 10.3473 104.079 11.6192 100.803 11.3389C99.9748 12.1017 99.0864 12.9806 98.1952 13.942C103.88 14.9366 108.853 11.813 111.5 9.15155C113.152 7.49211 113.967 6.01062 113.967 6.01062C113.967 6.01062 112.39 7.55192 109.952 8.94294Z" fill="#F40009"/>
<path d="M60.7981 13.7947H57.4669L55.5881 16.4967H58.9176L60.7981 13.7947ZM69.4397 20.9041C67.6947 21.0321 64.6115 22.4167 62.9322 25.442C61.2529 28.4672 61.2468 30.3348 61.2468 30.3348C61.2468 30.3348 62.1324 29.4736 63.4901 28.572C64.8478 27.6704 65.8582 27.35 65.8582 27.35C65.8582 27.35 66.1101 26.2393 66.7372 25.0776C67.3469 23.9476 68.3144 22.7711 69.5116 22.5042C71.9383 21.9624 70.7762 25.8908 68.9938 28.4524C68.0358 29.8291 64.6377 33.7856 61.7122 33.7856C58.7867 33.7856 58.2221 31.2839 58.8391 28.9447C59.4555 26.6061 60.3088 23.6347 64.5769 18.2357C68.845 12.8367 73.4648 9.63598 76.139 8.29093C78.8856 6.91029 80.0047 7.51534 80.0047 7.51534C80.0047 7.51534 76.4985 9.43084 74.5037 11.7354C72.5965 13.9381 71.4584 16.4166 72.3435 17.6312C73.1862 18.7884 76.1568 18.8101 79.4279 14.6212C82.6565 10.4862 81.8411 8.02746 81.8411 8.02746C81.8411 8.02746 82.2313 7.91475 82.4932 7.88361C84.0677 7.69774 85.329 8.06601 87.2819 8.95431C89.3279 9.88512 91.2909 11.378 93.9806 12.5994C94.7904 11.8125 95.6917 10.9766 96.6397 10.161C93.0136 8.59543 90.2609 6.36406 86.7045 6.15002C83.609 5.96415 81.1684 6.96466 81.1684 6.96466C81.1684 6.96466 80.2243 5.82426 77.3116 6.19649C74.3989 6.5692 65.4252 9.89699 57.7901 20.7414C50.8869 30.5463 54.1395 36.1653 59.1016 36.101C64.4805 36.0308 69.5974 30.7253 71.3291 26.35C73.0608 21.9748 71.0142 20.7889 69.4397 20.9041ZM79.9991 11.7932C79.0951 13.7478 77.7642 15.1136 76.4544 16.1566C74.7746 17.4947 73.8528 17.4497 73.4537 17.1808C72.4115 16.4769 73.8098 13.8224 76.2371 11.4487C78.6543 9.08432 80.7354 8.34877 80.7354 8.34877C80.7354 8.37645 81.0815 9.44962 79.9991 11.7932ZM109.952 8.94294C107.491 10.3473 104.079 11.6192 100.803 11.3389C99.9748 12.1017 99.0864 12.9806 98.1952 13.942C103.88 14.9366 108.853 11.813 111.5 9.15155C113.152 7.49211 113.967 6.01062 113.967 6.01062C113.967 6.01062 112.39 7.55192 109.952 8.94294Z" fill="#434343"/>
<path d="M107.263 21.2654H103.76L103.191 22.0455C103.191 22.0455 102.477 20.9021 101.267 20.9204C99.1935 20.952 97.1185 22.3559 94.7075 24.791C92.9401 26.575 90.0107 30.5468 90.0107 30.5468C90.0107 30.5468 87.763 33.6191 86.626 33.3783C84.6875 32.9675 88.2529 26.6061 88.2529 26.6061C88.2529 26.6061 90.1272 25.5794 92.5561 23.7667C94.0855 22.6258 95.845 21.0563 97.4624 19.6015C98.9332 18.2782 100.667 16.4814 102.314 14.513C101.892 14.5723 101.46 14.6124 101.019 14.6316C99.5413 16.3598 97.964 17.9065 96.6225 19.1359C94.6255 20.9659 92.7885 22.4632 91.4537 23.4182C90.1746 24.3327 89.3542 24.7445 89.3542 24.7445C89.3542 24.7445 91.7942 20.3 95.8612 15.3894C99.9281 10.4793 105.622 5.91771 105.176 8.08185C105.048 8.70322 104.613 9.59448 103.956 10.6523C104.419 10.5668 104.868 10.46 105.301 10.3384C106.281 8.54454 106.615 7.06602 105.884 6.63893C102.9 4.89594 95.3099 12.1081 91.505 16.297C87.7005 20.4859 84.2573 26.8874 84.2573 26.8874C84.2573 26.8874 83.662 27.1088 83.0038 27.2196C82.5886 27.2898 82.4114 27.2744 82.3434 27.2507C82.3094 27.2383 82.3055 27.2176 82.3055 27.2176C82.3055 27.2176 85.6523 21.6683 82.2258 20.9323C78.9191 20.2224 73.1896 25.6481 71.1525 29.4223C69.7547 32.0115 68.966 35.2711 71.3632 36.0472C73.9593 36.888 78.369 32.6843 79.4056 31.4628C80.4423 30.2409 81.7364 28.2092 81.7364 28.2092C81.7364 28.2092 82.3696 28.1795 82.7157 28.1345C83.3778 28.048 83.6877 27.9759 83.6877 27.9759C83.6877 27.9759 83.2585 28.9729 82.7943 30.2369C81.9287 32.5938 81.1479 35.9661 84.264 36.1248C86.2492 36.2251 89.1619 33.0452 89.1619 33.0452C89.1619 33.0452 88.3783 35.8727 90.9549 36.1248C92.8571 36.3106 95.6254 33.7041 95.6254 33.7041C95.6254 33.7041 95.0223 35.9498 96.9508 36.1475C98.6016 36.3171 100.945 34.6003 102.867 32.7115C104.965 30.6492 106.575 28.3906 106.575 28.3906H105.355C105.355 28.3906 102.655 32.0259 100.759 32.9987C99.2019 33.7975 99.7352 32.5177 100.207 31.8469C100.728 31.1069 107.262 21.2654 107.262 21.2659L107.263 21.2654ZM80.5749 28.1123C80.527 28.2097 79.6503 29.5626 78.7123 30.6264C77.7018 31.7728 75.852 33.498 74.7401 33.1331C73.0018 32.5627 74.9145 29.2038 76.1652 27.5745C77.4159 25.9452 77.558 25.835 77.5931 25.7924C77.6282 25.7499 77.6634 25.7109 77.694 25.7613C77.7247 25.8117 78.1226 26.481 78.9085 27.0619C79.6977 27.6452 80.4568 27.9531 80.5181 27.9724C80.5794 27.9917 80.6234 28.0149 80.5749 28.1118V28.1123ZM81.3569 26.9017C81.2471 27.0638 81.1685 27.0718 80.9405 27.0179C80.5393 26.9215 78.8767 26.2398 78.8895 24.7277C78.9012 23.2541 81.2432 21.8107 82.1617 22.4276C83.0189 23.003 82.6092 24.4741 82.286 25.2245C81.9633 25.9744 81.4288 26.7954 81.3569 26.9017ZM97.2701 30.5468C96.8075 31.1094 96.4207 31.6175 96.0718 31.9744C95.3261 32.7382 94.8395 33.0936 94.4059 33.1875C94.1875 33.2345 93.9166 33.2231 93.7371 33.1267C93.1006 32.7832 93.5465 31.4455 94.6545 29.6472C95.6683 28.0036 96.8398 26.3589 98.7655 24.4657C100.699 22.565 101.438 22.4736 101.98 22.4953C102.435 22.5126 102.5 22.9372 102.5 22.9372C102.5 22.9372 102.467 23.0356 102.395 23.1468C101.757 24.1281 98.542 29.0001 97.2696 30.5468H97.2701ZM45.6006 32.9245C43.4765 31.7604 40.7517 31.0135 37.6211 30.9893C29.5563 30.927 20.7754 34.4021 14.828 34.449C7.8133 34.5034 7.46385 29.7169 7.98385 27.0886C9.10299 21.4261 13.6314 16.0241 16.543 13.1759C19.4551 10.3276 22.5065 8.11745 25.0435 7.55243C27.5806 6.98742 27.342 8.69877 27.0316 8.93258C26.7111 8.93852 26.0964 8.99981 25.7475 9.21385C25.2013 9.54802 24.4717 10.16 24.426 11.1303C24.3474 12.6252 26.5255 12.8872 28.1 9.75711C29.174 7.62213 27.4708 6.17327 26.0562 6.03388C24.1161 5.84208 21.1511 6.44021 17.6119 8.45754C11.4522 11.9682 3.213 19.7642 3.00288 28.4138C2.88305 33.3482 6.51748 36.1248 11.504 36.1248C16.4906 36.1248 23.2606 33.4164 29.8712 33.3472C33.9644 33.316 36.6134 34.5884 37.9549 36.6606C37.9549 36.6606 39.2881 34.6937 42.2571 34.5884C45.1943 34.4836 48.428 35.2137 51.0826 36.8687C50.197 35.7338 47.6934 34.0714 45.6 32.9245H45.6006Z" fill="#F40009"/>
<path d="M107.263 21.2654H103.76L103.191 22.0455C103.191 22.0455 102.477 20.9021 101.267 20.9204C99.1935 20.952 97.1185 22.3559 94.7075 24.791C92.9401 26.575 90.0107 30.5468 90.0107 30.5468C90.0107 30.5468 87.763 33.6191 86.626 33.3783C84.6875 32.9675 88.2529 26.6061 88.2529 26.6061C88.2529 26.6061 90.1272 25.5794 92.5561 23.7667C94.0855 22.6258 95.845 21.0563 97.4624 19.6015C98.9332 18.2782 100.667 16.4814 102.314 14.513C101.892 14.5723 101.46 14.6124 101.019 14.6316C99.5413 16.3598 97.964 17.9065 96.6225 19.1359C94.6255 20.9659 92.7885 22.4632 91.4537 23.4182C90.1746 24.3327 89.3542 24.7445 89.3542 24.7445C89.3542 24.7445 91.7942 20.3 95.8612 15.3894C99.9281 10.4793 105.622 5.91771 105.176 8.08185C105.048 8.70322 104.613 9.59448 103.956 10.6523C104.419 10.5668 104.868 10.46 105.301 10.3384C106.281 8.54454 106.615 7.06602 105.884 6.63893C102.9 4.89594 95.3099 12.1081 91.505 16.297C87.7005 20.4859 84.2573 26.8874 84.2573 26.8874C84.2573 26.8874 83.662 27.1088 83.0038 27.2196C82.5886 27.2898 82.4114 27.2744 82.3434 27.2507C82.3094 27.2383 82.3055 27.2176 82.3055 27.2176C82.3055 27.2176 85.6523 21.6683 82.2258 20.9323C78.9191 20.2224 73.1896 25.6481 71.1525 29.4223C69.7547 32.0115 68.966 35.2711 71.3632 36.0472C73.9593 36.888 78.369 32.6843 79.4056 31.4628C80.4423 30.2409 81.7364 28.2092 81.7364 28.2092C81.7364 28.2092 82.3696 28.1795 82.7157 28.1345C83.3778 28.048 83.6877 27.9759 83.6877 27.9759C83.6877 27.9759 83.2585 28.9729 82.7943 30.2369C81.9287 32.5938 81.1479 35.9661 84.264 36.1248C86.2492 36.2251 89.1619 33.0452 89.1619 33.0452C89.1619 33.0452 88.3783 35.8727 90.9549 36.1248C92.8571 36.3106 95.6254 33.7041 95.6254 33.7041C95.6254 33.7041 95.0223 35.9498 96.9508 36.1475C98.6016 36.3171 100.945 34.6003 102.867 32.7115C104.965 30.6492 106.575 28.3906 106.575 28.3906H105.355C105.355 28.3906 102.655 32.0259 100.759 32.9987C99.2019 33.7975 99.7352 32.5177 100.207 31.8469C100.728 31.1069 107.262 21.2654 107.262 21.2659L107.263 21.2654ZM80.5749 28.1123C80.527 28.2097 79.6503 29.5626 78.7123 30.6264C77.7018 31.7728 75.852 33.498 74.7401 33.1331C73.0018 32.5627 74.9145 29.2038 76.1652 27.5745C77.4159 25.9452 77.558 25.835 77.5931 25.7924C77.6282 25.7499 77.6634 25.7109 77.694 25.7613C77.7247 25.8117 78.1226 26.481 78.9085 27.0619C79.6977 27.6452 80.4568 27.9531 80.5181 27.9724C80.5794 27.9917 80.6234 28.0149 80.5749 28.1118V28.1123ZM81.3569 26.9017C81.2471 27.0638 81.1685 27.0718 80.9405 27.0179C80.5393 26.9215 78.8767 26.2398 78.8895 24.7277C78.9012 23.2541 81.2432 21.8107 82.1617 22.4276C83.0189 23.003 82.6092 24.4741 82.286 25.2245C81.9633 25.9744 81.4288 26.7954 81.3569 26.9017ZM97.2701 30.5468C96.8075 31.1094 96.4207 31.6175 96.0718 31.9744C95.3261 32.7382 94.8395 33.0936 94.4059 33.1875C94.1875 33.2345 93.9166 33.2231 93.7371 33.1267C93.1006 32.7832 93.5465 31.4455 94.6545 29.6472C95.6683 28.0036 96.8398 26.3589 98.7655 24.4657C100.699 22.565 101.438 22.4736 101.98 22.4953C102.435 22.5126 102.5 22.9372 102.5 22.9372C102.5 22.9372 102.467 23.0356 102.395 23.1468C101.757 24.1281 98.542 29.0001 97.2696 30.5468H97.2701ZM45.6006 32.9245C43.4765 31.7604 40.7517 31.0135 37.6211 30.9893C29.5563 30.927 20.7754 34.4021 14.828 34.449C7.8133 34.5034 7.46385 29.7169 7.98385 27.0886C9.10299 21.4261 13.6314 16.0241 16.543 13.1759C19.4551 10.3276 22.5065 8.11745 25.0435 7.55243C27.5806 6.98742 27.342 8.69877 27.0316 8.93258C26.7111 8.93852 26.0964 8.99981 25.7475 9.21385C25.2013 9.54802 24.4717 10.16 24.426 11.1303C24.3474 12.6252 26.5255 12.8872 28.1 9.75711C29.174 7.62213 27.4708 6.17327 26.0562 6.03388C24.1161 5.84208 21.1511 6.44021 17.6119 8.45754C11.4522 11.9682 3.213 19.7642 3.00288 28.4138C2.88305 33.3482 6.51748 36.1248 11.504 36.1248C16.4906 36.1248 23.2606 33.4164 29.8712 33.3472C33.9644 33.316 36.6134 34.5884 37.9549 36.6606C37.9549 36.6606 39.2881 34.6937 42.2571 34.5884C45.1943 34.4836 48.428 35.2137 51.0826 36.8687C50.197 35.7338 47.6934 34.0714 45.6 32.9245H45.6006Z" fill="#434343"/>
<path d="M27.2344 13.4922C23.8536 12.728 18.2389 17.8324 15.873 21.9867C14.4138 24.5492 13.774 27.7697 16.3718 28.6076C18.9696 29.4455 23.377 25.2447 24.4137 24.0233C25.4503 22.8013 27.1469 20.3539 27.1469 20.3539C27.1469 20.3539 27.6674 20.2649 28.0085 20.1947C28.3496 20.1246 28.9008 19.9852 28.9008 19.9852C28.9008 19.9852 28.2616 20.9955 27.6847 22.0312C27.0009 23.2591 25.1427 27.3466 28.7303 28.5725C32.158 29.7436 37.0375 24.8602 37.2939 24.7677C37.2939 24.7677 35.8414 28.0955 38.0976 28.6076C40.5733 29.1692 43.2864 26.356 43.2864 26.356C43.2864 26.356 42.7151 28.4677 44.6441 28.666C48.0985 29.0204 54.2087 21.1839 54.2087 21.1839H52.9881C52.9881 21.1839 49.8787 24.7326 48.3833 25.4657C46.888 26.1988 47.4258 24.8963 47.8321 24.3139C48.3504 23.5729 54.956 13.7834 54.956 13.7834H51.4532L51.0468 14.3533C51.0468 14.3533 50.3251 13.3761 49.1184 13.4458C45.6077 13.6489 41.4305 18.6119 39.5935 20.7993C37.757 22.9872 33.7949 27.1642 31.7087 26.4198C29.4353 25.6081 31.6959 21.8819 33.1913 19.694C34.8193 17.3124 37.7046 14.9534 38.8455 14.9352C40.2495 14.9119 39.6982 16.0405 39.6982 16.0405C39.6982 16.0405 38.6488 15.9243 37.888 16.7735C37.3496 17.3741 36.9037 18.2511 37.4154 18.7281C38.2419 19.4987 39.3181 18.7162 39.9608 17.8433C41.9644 15.123 40.4986 13.6895 38.9247 13.4804C35.5717 13.034 32.4829 16.8546 30.1348 18.2743C28.5057 19.2585 27.8252 19.1819 27.8252 19.1819C27.8252 19.1819 30.6515 14.2644 27.235 13.4917L27.2344 13.4922ZM42.4136 22.2892C43.4274 20.6451 44.8085 19.0578 46.6059 17.0682C48.4034 15.0785 49.2979 14.9174 49.8391 14.9391C50.2944 14.9569 50.3591 15.381 50.3591 15.381C50.3591 15.381 46.4538 21.4162 45.037 23.1384C44.5744 23.701 44.1787 24.1775 43.8298 24.5349C43.0841 25.2986 42.5424 25.6679 42.1244 25.7598C41.9059 25.8073 41.635 25.7954 41.455 25.6985C40.8185 25.355 41.3039 24.087 42.4131 22.2892H42.4136ZM25.8394 20.3307C25.7909 20.4276 24.6756 22.0633 23.7382 23.1271C22.7283 24.2734 20.8617 26.0055 19.7498 25.6407C18.0115 25.0703 19.8658 21.7346 21.1164 20.1058C22.3671 18.4765 22.5505 18.2669 22.5862 18.2249C22.6213 18.1819 22.6558 18.1428 22.6865 18.1937C22.7171 18.2442 23.1151 18.9698 23.9767 19.4582C24.8384 19.9471 25.7218 20.172 25.7831 20.1913C25.8444 20.2106 25.8884 20.2343 25.8399 20.3307H25.8394ZM27.2935 17.7844C26.9702 18.5353 26.6815 19.0084 26.6219 19.1201C26.526 19.299 26.2858 19.2417 26.2858 19.2417C26.0121 19.2308 23.8848 18.8003 23.897 17.2881C23.9087 15.8146 26.2512 14.3711 27.1692 14.988C28.0264 15.5634 27.6167 17.0345 27.2935 17.7844ZM104.628 34.3309C104.423 34.2281 104.196 34.1772 103.945 34.1772C103.695 34.1772 103.468 34.2286 103.263 34.3309C103.059 34.4337 102.898 34.5731 102.78 34.7506C102.663 34.9275 102.604 35.1203 102.604 35.3279C102.604 35.5356 102.663 35.7318 102.78 35.9078C102.898 36.0833 103.059 36.2227 103.263 36.325C103.468 36.4278 103.695 36.4787 103.945 36.4787C104.196 36.4787 104.423 36.4273 104.628 36.325C104.832 36.2227 104.993 36.0833 105.11 35.9078C105.227 35.7323 105.286 35.539 105.286 35.3279C105.286 35.1169 105.228 34.9275 105.11 34.7506C104.993 34.5736 104.832 34.4337 104.628 34.3309ZM104.868 35.8045C104.779 35.9449 104.654 36.0551 104.494 36.1357C104.334 36.2157 104.151 36.2558 103.945 36.2558C103.74 36.2558 103.556 36.2157 103.396 36.1357C103.236 36.0556 103.112 35.9454 103.023 35.8045C102.934 35.6641 102.89 35.5049 102.89 35.3279C102.89 35.151 102.934 34.9963 103.023 34.8559C103.112 34.7155 103.237 34.6052 103.399 34.5247C103.56 34.4441 103.742 34.4045 103.945 34.4045C104.148 34.4045 104.33 34.4446 104.492 34.5247C104.654 34.6047 104.779 34.715 104.868 34.8559C104.956 34.9963 105.001 35.1539 105.001 35.3279C105.001 35.5019 104.956 35.6641 104.868 35.8045Z" fill="#F40009"/>
<path d="M27.2344 13.4922C23.8536 12.728 18.2389 17.8324 15.873 21.9867C14.4138 24.5492 13.774 27.7697 16.3718 28.6076C18.9696 29.4455 23.377 25.2447 24.4137 24.0233C25.4503 22.8013 27.1469 20.3539 27.1469 20.3539C27.1469 20.3539 27.6674 20.2649 28.0085 20.1947C28.3496 20.1246 28.9008 19.9852 28.9008 19.9852C28.9008 19.9852 28.2616 20.9955 27.6847 22.0312C27.0009 23.2591 25.1427 27.3466 28.7303 28.5725C32.158 29.7436 37.0375 24.8602 37.2939 24.7677C37.2939 24.7677 35.8414 28.0955 38.0976 28.6076C40.5733 29.1692 43.2864 26.356 43.2864 26.356C43.2864 26.356 42.7151 28.4677 44.6441 28.666C48.0985 29.0204 54.2087 21.1839 54.2087 21.1839H52.9881C52.9881 21.1839 49.8787 24.7326 48.3833 25.4657C46.888 26.1988 47.4258 24.8963 47.8321 24.3139C48.3504 23.5729 54.956 13.7834 54.956 13.7834H51.4532L51.0468 14.3533C51.0468 14.3533 50.3251 13.3761 49.1184 13.4458C45.6077 13.6489 41.4305 18.6119 39.5935 20.7993C37.757 22.9872 33.7949 27.1642 31.7087 26.4198C29.4353 25.6081 31.6959 21.8819 33.1913 19.694C34.8193 17.3124 37.7046 14.9534 38.8455 14.9352C40.2495 14.9119 39.6982 16.0405 39.6982 16.0405C39.6982 16.0405 38.6488 15.9243 37.888 16.7735C37.3496 17.3741 36.9037 18.2511 37.4154 18.7281C38.2419 19.4987 39.3181 18.7162 39.9608 17.8433C41.9644 15.123 40.4986 13.6895 38.9247 13.4804C35.5717 13.034 32.4829 16.8546 30.1348 18.2743C28.5057 19.2585 27.8252 19.1819 27.8252 19.1819C27.8252 19.1819 30.6515 14.2644 27.235 13.4917L27.2344 13.4922ZM42.4136 22.2892C43.4274 20.6451 44.8085 19.0578 46.6059 17.0682C48.4034 15.0785 49.2979 14.9174 49.8391 14.9391C50.2944 14.9569 50.3591 15.381 50.3591 15.381C50.3591 15.381 46.4538 21.4162 45.037 23.1384C44.5744 23.701 44.1787 24.1775 43.8298 24.5349C43.0841 25.2986 42.5424 25.6679 42.1244 25.7598C41.9059 25.8073 41.635 25.7954 41.455 25.6985C40.8185 25.355 41.3039 24.087 42.4131 22.2892H42.4136ZM25.8394 20.3307C25.7909 20.4276 24.6756 22.0633 23.7382 23.1271C22.7283 24.2734 20.8617 26.0055 19.7498 25.6407C18.0115 25.0703 19.8658 21.7346 21.1164 20.1058C22.3671 18.4765 22.5505 18.2669 22.5862 18.2249C22.6213 18.1819 22.6558 18.1428 22.6865 18.1937C22.7171 18.2442 23.1151 18.9698 23.9767 19.4582C24.8384 19.9471 25.7218 20.172 25.7831 20.1913C25.8444 20.2106 25.8884 20.2343 25.8399 20.3307H25.8394ZM27.2935 17.7844C26.9702 18.5353 26.6815 19.0084 26.6219 19.1201C26.526 19.299 26.2858 19.2417 26.2858 19.2417C26.0121 19.2308 23.8848 18.8003 23.897 17.2881C23.9087 15.8146 26.2512 14.3711 27.1692 14.988C28.0264 15.5634 27.6167 17.0345 27.2935 17.7844ZM104.628 34.3309C104.423 34.2281 104.196 34.1772 103.945 34.1772C103.695 34.1772 103.468 34.2286 103.263 34.3309C103.059 34.4337 102.898 34.5731 102.78 34.7506C102.663 34.9275 102.604 35.1203 102.604 35.3279C102.604 35.5356 102.663 35.7318 102.78 35.9078C102.898 36.0833 103.059 36.2227 103.263 36.325C103.468 36.4278 103.695 36.4787 103.945 36.4787C104.196 36.4787 104.423 36.4273 104.628 36.325C104.832 36.2227 104.993 36.0833 105.11 35.9078C105.227 35.7323 105.286 35.539 105.286 35.3279C105.286 35.1169 105.228 34.9275 105.11 34.7506C104.993 34.5736 104.832 34.4337 104.628 34.3309ZM104.868 35.8045C104.779 35.9449 104.654 36.0551 104.494 36.1357C104.334 36.2157 104.151 36.2558 103.945 36.2558C103.74 36.2558 103.556 36.2157 103.396 36.1357C103.236 36.0556 103.112 35.9454 103.023 35.8045C102.934 35.6641 102.89 35.5049 102.89 35.3279C102.89 35.151 102.934 34.9963 103.023 34.8559C103.112 34.7155 103.237 34.6052 103.399 34.5247C103.56 34.4441 103.742 34.4045 103.945 34.4045C104.148 34.4045 104.33 34.4446 104.492 34.5247C104.654 34.6047 104.779 34.715 104.868 34.8559C104.956 34.9963 105.001 35.1539 105.001 35.3279C105.001 35.5019 104.956 35.6641 104.868 35.8045Z" fill="#434343"/>
<path d="M104.449 35.309C104.487 35.2542 104.506 35.1929 104.506 35.1257C104.506 35.0328 104.472 34.9552 104.404 34.8919C104.336 34.8287 104.245 34.7971 104.131 34.7971H103.451V35.8383H103.75V35.4588H103.978L104.254 35.8383H104.596L104.287 35.4336C104.357 35.4054 104.411 35.3639 104.449 35.309ZM104.164 35.1993C104.141 35.2176 104.111 35.2265 104.073 35.2265H103.75V35.0244H104.073C104.111 35.0244 104.141 35.0338 104.164 35.0516C104.186 35.0698 104.197 35.0946 104.197 35.1252C104.197 35.1558 104.186 35.1805 104.164 35.1988V35.1993Z" fill="#F40009"/>
<path d="M104.449 35.309C104.487 35.2542 104.506 35.1929 104.506 35.1257C104.506 35.0328 104.472 34.9552 104.404 34.8919C104.336 34.8287 104.245 34.7971 104.131 34.7971H103.451V35.8383H103.75V35.4588H103.978L104.254 35.8383H104.596L104.287 35.4336C104.357 35.4054 104.411 35.3639 104.449 35.309ZM104.164 35.1993C104.141 35.2176 104.111 35.2265 104.073 35.2265H103.75V35.0244H104.073C104.111 35.0244 104.141 35.0338 104.164 35.0516C104.186 35.0698 104.197 35.0946 104.197 35.1252C104.197 35.1558 104.186 35.1805 104.164 35.1988V35.1993Z" fill="#434343"/>
</svg>
