<svg width="116" height="42" viewBox="0 0 116 42" fill="none" xmlns="http://www.w3.org/2000/svg">
<path d="M58.167 4.47528C58.9265 4.50682 59.6519 4.76447 60.2264 5.20674C61.0094 5.86506 61.2147 6.96278 60.8441 7.84107C59.4035 10.4749 55.9775 12.2341 53.6364 12.8161C52.2358 13.1087 50.4652 13.1087 49.1881 12.6698C48.5698 12.999 48.0483 14.0628 47.2933 13.6207C46.2007 12.8627 47.1465 11.6765 46.5158 10.8348C46.3857 10.6614 46.058 10.6487 45.8933 10.3652C45.028 8.68225 46.0992 7.0725 47.2933 5.79244C49.2842 3.81961 54.9958 1.62151 58.167 4.47528ZM51.5357 5.79191C50.4234 5.97478 49.1672 6.40465 48.4881 7.10908C47.8084 7.81298 47.3763 8.49939 47.7881 9.23085C49.2298 8.27995 49.9299 6.96278 51.5363 6.15817C51.5357 6.01135 51.7828 5.90163 51.5357 5.79191ZM58.25 6.15817C55.4076 5.93821 53.2658 7.84107 51.2475 9.66973C51.124 9.96232 50.3828 10.2915 50.9593 10.6206C53.6781 10.8401 56.2729 10.1457 58.25 8.53543C58.827 8.05998 59.2376 7.43823 58.9506 6.77939C58.827 6.5239 58.5364 6.26789 58.25 6.15817ZM82.879 17.0596C84.1973 19.9134 85.3091 24.4124 82.879 27.1565C82.2202 27.8148 81.0673 28.4217 80.3261 27.9245C77.6072 25.9861 76.4549 23.2055 74.766 20.7175C74.519 20.6078 74.519 20.9009 74.3954 21.0106C73.7778 23.5347 74.9307 26.8273 72.9954 28.8023C72.2542 28.912 71.5608 28.5733 71.3066 27.9245C70.3589 25.3273 71.3466 22.6198 71.5936 20.0226C72.1707 18.7054 72.4177 17.1694 73.6948 16.1813C75.7543 16.9128 76.7425 18.962 77.936 20.462C78.8019 21.5958 79.5013 22.8764 80.4896 23.9004C81.3543 23.5713 80.9288 22.5673 80.9019 21.9615C80.5713 19.5837 79.8302 17.3888 79.1296 15.1207C79.0896 14.5356 78.719 13.5476 79.4178 13.1818C81.2737 13.9138 82.0549 15.6327 82.879 17.0596ZM70.4407 16.1813C70.4407 16.7305 69.9465 17.4164 69.5336 17.4985C65.58 18.0471 61.1729 17.718 57.4664 18.8151C57.3429 19.2175 57.8782 19.2906 58.1664 19.4003C61.337 19.8392 64.6741 19.9489 67.7636 20.6443C69.3969 21.0127 69.9883 22.7301 70.1118 24.1564C70.1876 25.2812 69.7007 26.6439 68.4642 27.4125C65.4171 29.132 60.7629 29.0583 57.6729 27.4862C56.4919 26.8978 55.3664 25.9501 55.284 24.7792C55.2912 23.8495 55.7376 23.1175 56.4788 22.7672C59.4447 21.706 63.11 22.2923 65.6642 23.6449C65.8277 24.3769 64.9361 24.3372 64.5094 24.5964C61.667 26.0598 59.5258 22.9511 56.8899 24.0838C56.5193 24.3033 56.2514 24.9155 56.684 25.1084C59.9376 26.389 63.5623 25.4741 66.7747 24.6695C67.1453 24.5598 67.5989 24.2306 67.6394 23.9015C67.5159 22.7306 66.0336 22.4751 65.0859 22.146C62.2853 21.5242 59.1964 21.5242 56.1893 21.2682C55.6128 21.1585 54.8782 20.8018 54.707 20.3904C54.3775 19.5127 54.3775 18.3052 55.1187 17.5738C58.9488 14.5737 64.7559 14.8303 69.6159 15.6349C69.9459 15.7425 70.3165 15.8522 70.4407 16.1813ZM52.4422 17.5717C52.8128 21.0832 53.0187 24.3398 52.9364 28.0342C52.854 28.5092 52.2363 28.6194 51.8246 28.8023C51.1658 28.912 50.3142 28.7874 50.0534 28.4731C49.1063 27.1189 49.4357 25.2907 49.3534 23.6444C49.4769 21.0477 49.4357 18.2305 50.2599 15.8156C50.4174 15.4647 50.8775 15.1573 51.2481 15.3762C52.2364 15.8156 52.4011 16.6939 52.4422 17.5717ZM98.2022 17.0596C98.4003 17.3554 98.6074 17.8123 98.2022 18.0105C96.3486 18.742 93.8368 18.4128 91.6944 18.6323C91.118 19.0712 90.6644 19.8026 90.8697 20.4615C91.0768 20.5712 91.2612 20.7382 91.4886 20.717C92.8056 20.7906 94.7833 20.1684 95.6492 21.2656C95.8605 21.5921 95.6206 22.8112 95.0315 22.8387C93.4245 23.0227 90.782 22.6596 90.0056 23.0227C89.0174 23.6078 89.0991 24.7416 88.7285 25.657C89.4291 26.0593 90.1625 25.6474 90.9932 25.5467C92.5186 25.3273 94.2074 24.925 95.7304 25.2176C96.0186 25.693 96.431 26.2056 96.1421 26.7908C93.5456 28.6199 90.1966 30.4947 86.6285 29.1685C85.2894 28.6353 84.6926 26.8273 85.1461 25.2918C85.4338 24.1941 86.7103 23.1334 85.9285 21.9626C85.805 21.45 86.135 21.0117 86.6291 20.9019C87.9879 20.9019 87.6991 19.4019 88.3997 18.7065C87.6173 17.9385 85.6409 17.975 85.8467 16.4384C86.7944 15.9995 87.9479 16.1458 89.0174 15.9995C91.4474 15.5601 94.1656 15.3041 96.6386 15.5601C97.131 15.6481 97.7904 16.511 98.2022 17.0596ZM39.3856 8.71883C43.1864 11.4783 48.1175 16.1819 47.4998 21.5958C46.758 25.8764 41.6509 29.0954 37.3262 30.12C33.125 31.2172 27.8531 31.1075 23.569 30.2297C23.2807 30.9251 22.9925 31.7658 22.0866 32.0589C21.5101 32.2418 20.7683 32.132 20.3154 31.8029C19.0389 30.7417 20.0683 28.6931 18.2148 28.0353C14.59 26.6816 10.6771 24.0107 8.8241 20.7185C8.57703 20.0602 8.86527 19.4019 9.31822 18.8899C12.1606 16.8778 15.7436 16.0732 19.3272 15.4509C19.533 15.5241 19.4507 15.2681 19.6154 15.1949C19.8213 13 19.9036 10.768 20.686 8.79251C20.8644 8.51529 21.3036 8.42677 21.5925 8.60964C23.8578 10.1457 22.7866 13.0366 23.7754 15.1213C28.1002 15.3041 32.425 15.487 35.8432 17.6459C36.9968 18.487 37.2778 20.0936 36.9138 21.0117C36.5504 21.9281 35.3491 22.5848 34.2367 22.6569C33.495 22.6569 32.0949 22.7211 32.1773 22.2186C32.2596 21.7156 34.6968 20.8924 33.9485 20.206C32.8725 19.2196 27.4891 18.6328 24.1526 18.2671C23.7408 18.1939 23.3631 18.3037 23.3631 18.706C23.2807 21.4861 23.0337 24.5587 23.569 27.2302C23.6101 27.4136 23.8572 27.633 24.0637 27.6685C29.9532 28.5102 36.1726 28.0342 40.7856 25.0347C42.9274 23.4992 43.628 21.3392 43.2568 18.962C41.4033 12.3406 33.6191 8.35257 27.2349 5.79191C21.016 3.37755 14.1371 2.13353 6.76466 2.46322C5.59082 2.53955 3.73071 2.89945 3.71698 3.26836C3.70326 3.63727 5.82416 3.52119 5.56994 4.21926C5.31631 4.9168 3.1608 4.50284 2.52226 4.32898C1.88372 4.15513 1.94578 3.34098 2.11049 2.82895C3.71698 0.304872 8.19988 0.100804 10.2247 0.0122865C21.4272 -0.244256 32.2602 3.54505 39.3856 8.71883ZM19.2036 18.5231C16.3612 18.5597 13.3547 18.8157 10.7188 19.6934C10.1835 19.8763 9.5241 20.3883 9.93587 21.0106C11.0065 22.2907 12.5378 23.3417 13.9724 24.0833C15.407 24.8238 17.3089 25.7662 19.0389 25.9861C19.4507 23.6078 19.4507 21.2666 19.4095 18.8157C19.2442 18.7425 19.4089 18.5962 19.2036 18.5231ZM104.338 15.1939C104.215 18.3763 100.877 20.3523 100.877 23.5347C101.001 23.6444 101.085 23.7907 101.248 23.7186C103.926 21.1209 106.562 17.4259 110.475 16.3287C111.506 16.2556 112.437 17.0512 112.823 17.6459C114.182 20.0602 113.854 23.4626 111.959 25.6575C110.003 27.8122 106.603 29.9742 102.733 29.608C101.128 33.12 100.013 36.815 99.3957 40.6562C99.0663 41.4243 98.2845 40.7294 97.7904 40.5831C94.4545 38.2419 97.1936 32.044 97.4198 31.2532C97.646 30.4645 98.5387 28.604 99.1916 27.0462C97.6263 24.5593 98.6145 21.5587 99.891 19.254C100.879 17.7174 102.24 16.1808 103.846 15.0105C104.05 15.011 104.215 15.0476 104.338 15.1939ZM110.971 19.1448C110.476 19.0717 110.27 19.6574 109.859 19.7671C107.965 21.6694 106.069 23.5718 105.122 25.8399C106.399 25.9861 107.469 25.2547 108.582 24.8524C110.476 23.7912 111.671 22.0362 111.548 20.0237C111.465 19.6934 111.135 19.4374 110.971 19.1448Z" fill="#F40009"/>
<path d="M58.167 4.47528C58.9265 4.50682 59.6519 4.76447 60.2264 5.20674C61.0094 5.86506 61.2147 6.96278 60.8441 7.84107C59.4035 10.4749 55.9775 12.2341 53.6364 12.8161C52.2358 13.1087 50.4652 13.1087 49.1881 12.6698C48.5698 12.999 48.0483 14.0628 47.2933 13.6207C46.2007 12.8627 47.1465 11.6765 46.5158 10.8348C46.3857 10.6614 46.058 10.6487 45.8933 10.3652C45.028 8.68225 46.0992 7.0725 47.2933 5.79244C49.2842 3.81961 54.9958 1.62151 58.167 4.47528ZM51.5357 5.79191C50.4234 5.97478 49.1672 6.40465 48.4881 7.10908C47.8084 7.81298 47.3763 8.49939 47.7881 9.23085C49.2298 8.27995 49.9299 6.96278 51.5363 6.15817C51.5357 6.01135 51.7828 5.90163 51.5357 5.79191ZM58.25 6.15817C55.4076 5.93821 53.2658 7.84107 51.2475 9.66973C51.124 9.96232 50.3828 10.2915 50.9593 10.6206C53.6781 10.8401 56.2729 10.1457 58.25 8.53543C58.827 8.05998 59.2376 7.43823 58.9506 6.77939C58.827 6.5239 58.5364 6.26789 58.25 6.15817ZM82.879 17.0596C84.1973 19.9134 85.3091 24.4124 82.879 27.1565C82.2202 27.8148 81.0673 28.4217 80.3261 27.9245C77.6072 25.9861 76.4549 23.2055 74.766 20.7175C74.519 20.6078 74.519 20.9009 74.3954 21.0106C73.7778 23.5347 74.9307 26.8273 72.9954 28.8023C72.2542 28.912 71.5608 28.5733 71.3066 27.9245C70.3589 25.3273 71.3466 22.6198 71.5936 20.0226C72.1707 18.7054 72.4177 17.1694 73.6948 16.1813C75.7543 16.9128 76.7425 18.962 77.936 20.462C78.8019 21.5958 79.5013 22.8764 80.4896 23.9004C81.3543 23.5713 80.9288 22.5673 80.9019 21.9615C80.5713 19.5837 79.8302 17.3888 79.1296 15.1207C79.0896 14.5356 78.719 13.5476 79.4178 13.1818C81.2737 13.9138 82.0549 15.6327 82.879 17.0596ZM70.4407 16.1813C70.4407 16.7305 69.9465 17.4164 69.5336 17.4985C65.58 18.0471 61.1729 17.718 57.4664 18.8151C57.3429 19.2175 57.8782 19.2906 58.1664 19.4003C61.337 19.8392 64.6741 19.9489 67.7636 20.6443C69.3969 21.0127 69.9883 22.7301 70.1118 24.1564C70.1876 25.2812 69.7007 26.6439 68.4642 27.4125C65.4171 29.132 60.7629 29.0583 57.6729 27.4862C56.4919 26.8978 55.3664 25.9501 55.284 24.7792C55.2912 23.8495 55.7376 23.1175 56.4788 22.7672C59.4447 21.706 63.11 22.2923 65.6642 23.6449C65.8277 24.3769 64.9361 24.3372 64.5094 24.5964C61.667 26.0598 59.5258 22.9511 56.8899 24.0838C56.5193 24.3033 56.2514 24.9155 56.684 25.1084C59.9376 26.389 63.5623 25.4741 66.7747 24.6695C67.1453 24.5598 67.5989 24.2306 67.6394 23.9015C67.5159 22.7306 66.0336 22.4751 65.0859 22.146C62.2853 21.5242 59.1964 21.5242 56.1893 21.2682C55.6128 21.1585 54.8782 20.8018 54.707 20.3904C54.3775 19.5127 54.3775 18.3052 55.1187 17.5738C58.9488 14.5737 64.7559 14.8303 69.6159 15.6349C69.9459 15.7425 70.3165 15.8522 70.4407 16.1813ZM52.4422 17.5717C52.8128 21.0832 53.0187 24.3398 52.9364 28.0342C52.854 28.5092 52.2363 28.6194 51.8246 28.8023C51.1658 28.912 50.3142 28.7874 50.0534 28.4731C49.1063 27.1189 49.4357 25.2907 49.3534 23.6444C49.4769 21.0477 49.4357 18.2305 50.2599 15.8156C50.4174 15.4647 50.8775 15.1573 51.2481 15.3762C52.2364 15.8156 52.4011 16.6939 52.4422 17.5717ZM98.2022 17.0596C98.4003 17.3554 98.6074 17.8123 98.2022 18.0105C96.3486 18.742 93.8368 18.4128 91.6944 18.6323C91.118 19.0712 90.6644 19.8026 90.8697 20.4615C91.0768 20.5712 91.2612 20.7382 91.4886 20.717C92.8056 20.7906 94.7833 20.1684 95.6492 21.2656C95.8605 21.5921 95.6206 22.8112 95.0315 22.8387C93.4245 23.0227 90.782 22.6596 90.0056 23.0227C89.0174 23.6078 89.0991 24.7416 88.7285 25.657C89.4291 26.0593 90.1625 25.6474 90.9932 25.5467C92.5186 25.3273 94.2074 24.925 95.7304 25.2176C96.0186 25.693 96.431 26.2056 96.1421 26.7908C93.5456 28.6199 90.1966 30.4947 86.6285 29.1685C85.2894 28.6353 84.6926 26.8273 85.1461 25.2918C85.4338 24.1941 86.7103 23.1334 85.9285 21.9626C85.805 21.45 86.135 21.0117 86.6291 20.9019C87.9879 20.9019 87.6991 19.4019 88.3997 18.7065C87.6173 17.9385 85.6409 17.975 85.8467 16.4384C86.7944 15.9995 87.9479 16.1458 89.0174 15.9995C91.4474 15.5601 94.1656 15.3041 96.6386 15.5601C97.131 15.6481 97.7904 16.511 98.2022 17.0596ZM39.3856 8.71883C43.1864 11.4783 48.1175 16.1819 47.4998 21.5958C46.758 25.8764 41.6509 29.0954 37.3262 30.12C33.125 31.2172 27.8531 31.1075 23.569 30.2297C23.2807 30.9251 22.9925 31.7658 22.0866 32.0589C21.5101 32.2418 20.7683 32.132 20.3154 31.8029C19.0389 30.7417 20.0683 28.6931 18.2148 28.0353C14.59 26.6816 10.6771 24.0107 8.8241 20.7185C8.57703 20.0602 8.86527 19.4019 9.31822 18.8899C12.1606 16.8778 15.7436 16.0732 19.3272 15.4509C19.533 15.5241 19.4507 15.2681 19.6154 15.1949C19.8213 13 19.9036 10.768 20.686 8.79251C20.8644 8.51529 21.3036 8.42677 21.5925 8.60964C23.8578 10.1457 22.7866 13.0366 23.7754 15.1213C28.1002 15.3041 32.425 15.487 35.8432 17.6459C36.9968 18.487 37.2778 20.0936 36.9138 21.0117C36.5504 21.9281 35.3491 22.5848 34.2367 22.6569C33.495 22.6569 32.0949 22.7211 32.1773 22.2186C32.2596 21.7156 34.6968 20.8924 33.9485 20.206C32.8725 19.2196 27.4891 18.6328 24.1526 18.2671C23.7408 18.1939 23.3631 18.3037 23.3631 18.706C23.2807 21.4861 23.0337 24.5587 23.569 27.2302C23.6101 27.4136 23.8572 27.633 24.0637 27.6685C29.9532 28.5102 36.1726 28.0342 40.7856 25.0347C42.9274 23.4992 43.628 21.3392 43.2568 18.962C41.4033 12.3406 33.6191 8.35257 27.2349 5.79191C21.016 3.37755 14.1371 2.13353 6.76466 2.46322C5.59082 2.53955 3.73071 2.89945 3.71698 3.26836C3.70326 3.63727 5.82416 3.52119 5.56994 4.21926C5.31631 4.9168 3.1608 4.50284 2.52226 4.32898C1.88372 4.15513 1.94578 3.34098 2.11049 2.82895C3.71698 0.304872 8.19988 0.100804 10.2247 0.0122865C21.4272 -0.244256 32.2602 3.54505 39.3856 8.71883ZM19.2036 18.5231C16.3612 18.5597 13.3547 18.8157 10.7188 19.6934C10.1835 19.8763 9.5241 20.3883 9.93587 21.0106C11.0065 22.2907 12.5378 23.3417 13.9724 24.0833C15.407 24.8238 17.3089 25.7662 19.0389 25.9861C19.4507 23.6078 19.4507 21.2666 19.4095 18.8157C19.2442 18.7425 19.4089 18.5962 19.2036 18.5231ZM104.338 15.1939C104.215 18.3763 100.877 20.3523 100.877 23.5347C101.001 23.6444 101.085 23.7907 101.248 23.7186C103.926 21.1209 106.562 17.4259 110.475 16.3287C111.506 16.2556 112.437 17.0512 112.823 17.6459C114.182 20.0602 113.854 23.4626 111.959 25.6575C110.003 27.8122 106.603 29.9742 102.733 29.608C101.128 33.12 100.013 36.815 99.3957 40.6562C99.0663 41.4243 98.2845 40.7294 97.7904 40.5831C94.4545 38.2419 97.1936 32.044 97.4198 31.2532C97.646 30.4645 98.5387 28.604 99.1916 27.0462C97.6263 24.5593 98.6145 21.5587 99.891 19.254C100.879 17.7174 102.24 16.1808 103.846 15.0105C104.05 15.011 104.215 15.0476 104.338 15.1939ZM110.971 19.1448C110.476 19.0717 110.27 19.6574 109.859 19.7671C107.965 21.6694 106.069 23.5718 105.122 25.8399C106.399 25.9861 107.469 25.2547 108.582 24.8524C110.476 23.7912 111.671 22.0362 111.548 20.0237C111.465 19.6934 111.135 19.4374 110.971 19.1448Z" fill="#434343"/>
</svg>
