<svg width="116" height="42" viewBox="0 0 116 42" fill="none" xmlns="http://www.w3.org/2000/svg">
<path d="M9.00964 14.1102C7.66089 14.1102 7.25626 14.6366 7.25626 15.8089V17.7468H10.8709L10.5202 20.9049H7.25626V30.4509H2.9133V20.9049H0V17.7707H2.9133V15.8807C2.9133 12.6747 4.36994 11 8.38921 11C9.22543 11 10.0886 11.0478 10.9249 11.1435V14.1102" fill="#F40009"/>
<path d="M9.00964 14.1102C7.66089 14.1102 7.25626 14.6366 7.25626 15.8089V17.7468H10.8709L10.5202 20.9049H7.25626V30.4509H2.9133V20.9049H0V17.7707H2.9133V15.8807C2.9133 12.6747 4.36994 11 8.38921 11C9.22543 11 10.0886 11.0478 10.9249 11.1435V14.1102" fill="#434343"/>
<path d="M11.1677 23.7041C11.1677 20.1632 13.056 17.4836 17.0483 17.4836C19.2063 17.4836 20.528 18.4646 21.1754 19.7087V17.7707H25.3296V30.4748H21.1485V28.5608C20.555 29.781 19.1793 30.738 17.0213 30.738C13.056 30.738 11.1407 28.0823 11.1407 24.5175M15.5107 24.5654C15.5107 26.4555 16.293 27.7235 18.3161 27.7235C20.0964 27.7235 20.9866 26.5751 20.9866 24.7568V23.4649C20.9866 21.6466 20.0695 20.4982 18.3161 20.4982C16.293 20.4982 15.5107 21.7423 15.5107 23.6563V24.5654Z" fill="#F40009"/>
<path d="M11.1677 23.7041C11.1677 20.1632 13.056 17.4836 17.0483 17.4836C19.2063 17.4836 20.528 18.4646 21.1754 19.7087V17.7707H25.3296V30.4748H21.1485V28.5608C20.555 29.781 19.1793 30.738 17.0213 30.738C13.056 30.738 11.1407 28.0823 11.1407 24.5175M15.5107 24.5654C15.5107 26.4555 16.293 27.7235 18.3161 27.7235C20.0964 27.7235 20.9866 26.5751 20.9866 24.7568V23.4649C20.9866 21.6466 20.0695 20.4982 18.3161 20.4982C16.293 20.4982 15.5107 21.7423 15.5107 23.6563V24.5654Z" fill="#434343"/>
<path d="M34.3391 17.4836C36.0116 17.4836 37.6301 17.7947 38.4933 18.3449L37.5222 21.0724C36.632 20.6896 35.6339 20.4982 34.6359 20.4982C32.289 20.4982 31.264 21.6944 31.264 23.752V24.4936C31.264 26.5512 32.289 27.7474 34.6359 27.7474C35.6339 27.7474 36.632 27.5321 37.5222 27.1493L38.4933 29.8767C37.6301 30.4031 36.0386 30.738 34.3391 30.738C29.2409 30.738 26.948 28.3216 26.948 24.4218V23.8237C26.948 19.924 29.2409 17.4836 34.3391 17.4836Z" fill="#F40009"/>
<path d="M34.3391 17.4836C36.0116 17.4836 37.6301 17.7947 38.4933 18.3449L37.5222 21.0724C36.632 20.6896 35.6339 20.4982 34.6359 20.4982C32.289 20.4982 31.264 21.6944 31.264 23.752V24.4936C31.264 26.5512 32.289 27.7474 34.6359 27.7474C35.6339 27.7474 36.632 27.5321 37.5222 27.1493L38.4933 29.8767C37.6301 30.4031 36.0386 30.738 34.3391 30.738C29.2409 30.738 26.948 28.3216 26.948 24.4218V23.8237C26.948 19.924 29.2409 17.4836 34.3391 17.4836Z" fill="#434343"/>
<path d="M39.0598 24.5893V23.4649C39.0598 19.8522 41.3797 17.4836 46.1003 17.4836C50.5511 17.4836 52.5203 19.8761 52.5203 23.417V25.4506H43.4028C43.4837 27.1971 44.3739 27.9627 46.7746 27.9627C48.3392 27.9627 49.9037 27.6996 51.3874 27.1971L52.1696 29.8289C51.0367 30.3552 48.6899 30.7619 46.6128 30.7619C41.1099 30.738 39.0598 28.3216 39.0598 24.5893ZM43.4028 22.9146H48.6359V22.6036C48.6359 21.2159 48.0155 20.1154 46.1003 20.1154C44.1581 20.1154 43.4028 21.2159 43.4028 22.9146Z" fill="#F40009"/>
<path d="M39.0598 24.5893V23.4649C39.0598 19.8522 41.3797 17.4836 46.1003 17.4836C50.5511 17.4836 52.5203 19.8761 52.5203 23.417V25.4506H43.4028C43.4837 27.1971 44.3739 27.9627 46.7746 27.9627C48.3392 27.9627 49.9037 27.6996 51.3874 27.1971L52.1696 29.8289C51.0367 30.3552 48.6899 30.7619 46.6128 30.7619C41.1099 30.738 39.0598 28.3216 39.0598 24.5893ZM43.4028 22.9146H48.6359V22.6036C48.6359 21.2159 48.0155 20.1154 46.1003 20.1154C44.1581 20.1154 43.4028 21.2159 43.4028 22.9146Z" fill="#434343"/>
<path d="M68.5974 24.5175C68.5974 28.0584 66.6822 30.738 62.6899 30.738C60.5319 30.738 59.0213 29.781 58.4278 28.5608V30.4748H54.3276V11.3828L58.6706 11.0479V19.5412C59.291 18.4167 60.6937 17.5076 62.7168 17.5076C66.6822 17.5076 68.6244 20.1632 68.6244 23.728M64.2544 23.6323C64.2544 21.838 63.4721 20.4982 61.3951 20.4982C59.6147 20.4982 58.6706 21.6226 58.6706 23.4409V24.7807C58.6706 26.599 59.6417 27.7235 61.3951 27.7235C63.4721 27.7235 64.2544 26.3837 64.2544 24.5893V23.6323Z" fill="#F40009"/>
<path d="M68.5974 24.5175C68.5974 28.0584 66.6822 30.738 62.6899 30.738C60.5319 30.738 59.0213 29.781 58.4278 28.5608V30.4748H54.3276V11.3828L58.6706 11.0479V19.5412C59.291 18.4167 60.6937 17.5076 62.7168 17.5076C66.6822 17.5076 68.6244 20.1632 68.6244 23.728M64.2544 23.6323C64.2544 21.838 63.4721 20.4982 61.3951 20.4982C59.6147 20.4982 58.6706 21.6226 58.6706 23.4409V24.7807C58.6706 26.599 59.6417 27.7235 61.3951 27.7235C63.4721 27.7235 64.2544 26.3837 64.2544 24.5893V23.6323Z" fill="#434343"/>
<path d="M70.027 24.4218V23.7759C70.027 20.1154 72.3738 17.4836 77.1484 17.4836C81.9229 17.4836 84.2698 20.1154 84.2698 23.7759V24.4218C84.2698 28.0823 81.9229 30.7141 77.1484 30.7141C72.3738 30.7141 70.027 28.1063 70.027 24.4218ZM79.9538 23.5127C79.9538 21.838 79.1715 20.4982 77.1484 20.4982C75.1252 20.4982 74.343 21.838 74.343 23.5127V24.7089C74.343 26.3837 75.1252 27.7235 77.1484 27.7235C79.1715 27.7235 79.9538 26.3837 79.9538 24.7089V23.5127Z" fill="#F40009"/>
<path d="M70.027 24.4218V23.7759C70.027 20.1154 72.3738 17.4836 77.1484 17.4836C81.9229 17.4836 84.2698 20.1154 84.2698 23.7759V24.4218C84.2698 28.0823 81.9229 30.7141 77.1484 30.7141C72.3738 30.7141 70.027 28.1063 70.027 24.4218ZM79.9538 23.5127C79.9538 21.838 79.1715 20.4982 77.1484 20.4982C75.1252 20.4982 74.343 21.838 74.343 23.5127V24.7089C74.343 26.3837 75.1252 27.7235 77.1484 27.7235C79.1715 27.7235 79.9538 26.3837 79.9538 24.7089V23.5127Z" fill="#434343"/>
<path d="M85.7534 24.4218V23.7759C85.7534 20.1154 88.1002 17.4836 92.8748 17.4836C97.6494 17.4836 99.9962 20.1154 99.9962 23.7759V24.4218C99.9962 28.0823 97.6494 30.7141 92.8748 30.7141C88.1002 30.7141 85.7534 28.1063 85.7534 24.4218ZM95.6802 23.5127C95.6802 21.838 94.8979 20.4982 92.8748 20.4982C90.8517 20.4982 90.0694 21.838 90.0694 23.5127V24.7089C90.0694 26.3837 90.8517 27.7235 92.8748 27.7235C94.8979 27.7235 95.6802 26.3837 95.6802 24.7089V23.5127Z" fill="#F40009"/>
<path d="M85.7534 24.4218V23.7759C85.7534 20.1154 88.1002 17.4836 92.8748 17.4836C97.6494 17.4836 99.9962 20.1154 99.9962 23.7759V24.4218C99.9962 28.0823 97.6494 30.7141 92.8748 30.7141C88.1002 30.7141 85.7534 28.1063 85.7534 24.4218ZM95.6802 23.5127C95.6802 21.838 94.8979 20.4982 92.8748 20.4982C90.8517 20.4982 90.0694 21.838 90.0694 23.5127V24.7089C90.0694 26.3837 90.8517 27.7235 92.8748 27.7235C94.8979 27.7235 95.6802 26.3837 95.6802 24.7089V23.5127Z" fill="#434343"/>
<path d="M105.958 23.8237L110.247 17.7468H114.832L110.355 24.039L115.021 30.4748H110.408L105.958 24.2544V30.4748H101.642V11.3828L105.958 11.0239" fill="#F40009"/>
<path d="M105.958 23.8237L110.247 17.7468H114.832L110.355 24.039L115.021 30.4748H110.408L105.958 24.2544V30.4748H101.642V11.3828L105.958 11.0239" fill="#434343"/>
</svg>
