<svg width="32" height="32" viewBox="0 0 32 32" fill="none" xmlns="http://www.w3.org/2000/svg">
<path fill-rule="evenodd" clip-rule="evenodd" d="M21.1679 27V18.4805H24.6096L25.1245 15.1607H21.1666V13.041C21.1666 12.0796 21.4883 11.424 23.1482 11.424H25.2635V8.454C24.2391 8.36341 23.2095 8.31934 22.1793 8.322C19.1294 8.322 17.0419 9.8697 17.0419 12.711V15.1607H13.5897V18.4805H17.0406V27H4.46138C3.65391 27 3 26.4566 3 25.7856V6.2144C3 5.5434 3.65391 5 4.46138 5H28.0129C28.8203 5 29.4742 5.5434 29.4742 6.2144V25.7856C29.4742 26.4566 28.8203 27 28.0129 27H21.1679Z" fill="#D9D9D9"/>
</svg>
