<svg width="32" height="32" viewBox="0 0 32 32" fill="none" xmlns="http://www.w3.org/2000/svg">
<path d="M29.2168 13.8457H28.1505V13.8H16.2371V18.2H23.7181C22.6267 20.7614 19.694 22.6 16.2371 22.6C11.851 22.6 8.29485 19.6449 8.29485 16C8.29485 12.3552 11.851 9.4 16.2371 9.4C18.2617 9.4 20.1037 10.0347 21.5062 11.0714L25.2503 7.9601C22.8861 6.12915 19.7238 5 16.2371 5C8.92692 5 3 9.92525 3 16C3 22.0748 8.92692 27 16.2371 27C23.5473 27 29.4742 22.0748 29.4742 16C29.4742 15.2625 29.3829 14.5425 29.2168 13.8457Z" fill="#D9D9D9"/>
<path d="M4.52625 10.8801L8.8753 13.5305C10.0521 11.1094 12.902 9.4 16.2371 9.4C18.2617 9.4 20.1037 10.0347 21.5062 11.0714L25.2503 7.9601C22.8861 6.12915 19.7238 5 16.2371 5C11.1527 5 6.74346 7.38535 4.52625 10.8801Z" fill="#D9D9D9"/>
<path d="M16.2371 27C19.6563 27 22.763 25.9127 25.1119 24.1444L21.015 21.2635C19.6414 22.1317 17.9629 22.6012 16.2371 22.6C12.7941 22.6 9.87071 20.7757 8.76938 18.2297L4.45276 20.9935C6.6435 24.5558 11.0925 27 16.2371 27Z" fill="#D9D9D9"/>
<path d="M29.2167 13.8457H28.1505V13.8H16.2371V18.2H23.718C23.196 19.4191 22.2556 20.4843 21.013 21.2641L21.015 21.263L25.1119 24.1439C24.822 24.3628 29.4742 21.5 29.4742 16C29.4742 15.2625 29.3828 14.5425 29.2167 13.8457Z" fill="#D9D9D9"/>
</svg>
