<svg width="32" height="32" viewBox="0 0 32 32" fill="none" xmlns="http://www.w3.org/2000/svg">
<path d="M26.1111 5C26.8773 5 27.6121 5.25754 28.1539 5.71596C28.6956 6.17438 29 6.79614 29 7.44444V24.5556C29 25.2039 28.6956 25.8256 28.1539 26.284C27.6121 26.7425 26.8773 27 26.1111 27H5.88889C5.12271 27 4.38791 26.7425 3.84614 26.284C3.30436 25.8256 3 25.2039 3 24.5556V7.44444C3 6.79614 3.30436 6.17438 3.84614 5.71596C4.38791 5.25754 5.12271 5 5.88889 5H26.1111ZM25.3889 23.9444V17.4667C25.3889 16.4099 24.8928 15.3965 24.0097 14.6492C23.1266 13.902 21.9289 13.4822 20.68 13.4822C19.4522 13.4822 18.0222 14.1178 17.3289 15.0711V13.7144H13.2989V23.9444H17.3289V17.9189C17.3289 16.9778 18.2244 16.2078 19.3367 16.2078C19.873 16.2078 20.3874 16.3881 20.7666 16.709C21.1458 17.0298 21.3589 17.4651 21.3589 17.9189V23.9444H25.3889ZM8.60444 11.7956C9.24804 11.7956 9.86527 11.5792 10.3204 11.1941C10.7754 10.8091 11.0311 10.2868 11.0311 9.74222C11.0311 8.60556 9.94778 7.67667 8.60444 7.67667C7.95702 7.67667 7.33612 7.89429 6.87832 8.28165C6.42052 8.66902 6.16333 9.1944 6.16333 9.74222C6.16333 10.8789 7.26111 11.7956 8.60444 11.7956ZM10.6122 23.9444V13.7144H6.61111V23.9444H10.6122Z" fill="#D9D9D9"/>
</svg>
