<svg width="116" height="42" viewBox="0 0 116 42" fill="none" xmlns="http://www.w3.org/2000/svg">
<mask id="mask0_6219_1116" style="mask-type:alpha" maskUnits="userSpaceOnUse" x="0" y="10" width="116" height="22">
<path d="M115.021 19.8525V18.0585H112.509V15.2693L112.425 15.2924L110.065 15.9327L110.019 15.9452V18.0585H106.295V16.8812C106.295 16.333 106.433 15.9135 106.705 15.6338C106.976 15.3573 107.363 15.2168 107.856 15.2168C108.211 15.2168 108.578 15.2909 108.948 15.4371L109.041 15.4738V13.5844L108.997 13.5701C108.652 13.4602 108.183 13.4048 107.602 13.4048C106.869 13.4048 106.203 13.5463 105.623 13.8265C105.042 14.1072 104.585 14.5079 104.265 15.0173C103.946 15.5261 103.784 16.1138 103.784 16.7641V18.0585H102.035V19.8525H103.784V27.4108H106.295V19.8525H110.019V24.6557C110.019 26.6338 111.071 27.6363 113.146 27.6363C113.487 27.6363 113.845 27.6008 114.212 27.5314C114.585 27.4602 114.839 27.389 114.988 27.3131L115.021 27.2957V25.485L114.919 25.5449C114.783 25.6254 114.613 25.6913 114.414 25.7402C114.214 25.79 114.048 25.815 113.918 25.815C113.432 25.815 113.073 25.6989 112.85 25.4696C112.624 25.2383 112.509 24.8338 112.509 24.2679V19.8525H115.021ZM96.4274 25.8153C95.516 25.8153 94.7975 25.5473 94.2911 25.0193C93.7816 24.4887 93.5235 23.7322 93.5235 22.771C93.5235 21.7793 93.7816 21.0031 94.2913 20.4631C94.798 19.9267 95.5097 19.6544 96.4069 19.6544C97.2776 19.6544 97.9707 19.9144 98.4671 20.4277C98.9661 20.9436 99.2193 21.7136 99.2193 22.7168C99.2193 23.7324 98.9812 24.5125 98.5116 25.0343C98.0453 25.5522 97.3441 25.8153 96.4274 25.8153ZM96.539 17.8332C94.8002 17.8332 93.4192 18.285 92.4345 19.1763C91.4505 20.0676 90.9515 21.3011 90.9515 22.8427C90.9515 24.307 91.4385 25.4848 92.3992 26.3429C93.3599 27.2012 94.6673 27.6361 96.2848 27.6361C97.9702 27.6361 99.3238 27.1779 100.308 26.2743C101.292 25.3717 101.791 24.1499 101.791 22.6443C101.791 21.1571 101.323 19.9705 100.4 19.1181C99.4761 18.2654 98.177 17.8332 96.539 17.8332ZM86.9031 17.8332C85.7203 17.8332 84.742 18.1015 83.9946 18.6305C83.2427 19.1627 82.8612 19.8607 82.8612 20.7054C82.8612 21.1444 82.9436 21.5344 83.1056 21.8652C83.2686 22.1971 83.5208 22.4893 83.856 22.7346C84.1885 22.9778 84.7019 23.2326 85.3822 23.4919C85.9541 23.7006 86.3806 23.8771 86.6515 24.0163C86.9164 24.1527 87.1043 24.2897 87.2104 24.4233C87.3136 24.5539 87.3659 24.7327 87.3659 24.9534C87.3659 25.5817 86.8353 25.8875 85.7437 25.8875C85.3388 25.8875 84.8769 25.8125 84.371 25.6646C83.8687 25.519 83.3946 25.3058 82.9653 25.0324L82.861 24.9661V27.1103L82.8993 27.1261C83.2546 27.2715 83.7025 27.3942 84.2305 27.4907C84.7574 27.5873 85.2362 27.6365 85.6521 27.6365C86.9356 27.6365 87.9692 27.3668 88.7233 26.8346C89.4823 26.2988 89.8669 25.5843 89.8669 24.7104C89.8669 24.08 89.6598 23.5394 89.2517 23.1034C88.8464 22.671 88.1428 22.274 87.1616 21.9231C86.3798 21.6448 85.879 21.4138 85.6724 21.2364C85.4732 21.0651 85.3721 20.8228 85.3721 20.516C85.3721 20.244 85.4969 20.0261 85.7532 19.8497C86.0114 19.6723 86.3709 19.5822 86.8218 19.5822C87.2401 19.5822 87.6682 19.6408 88.0939 19.7556C88.5192 19.8705 88.8929 20.0244 89.2048 20.2126L89.3074 20.2747V18.2408L89.268 18.2258C88.9802 18.1164 88.6008 18.0227 88.1399 17.9467C87.6812 17.8712 87.2651 17.8332 86.9031 17.8332ZM76.3153 25.8153C75.4042 25.8153 74.6854 25.5473 74.1791 25.0193C73.6695 24.4887 73.4118 23.7324 73.4118 22.771C73.4118 21.7793 73.6699 21.0031 74.1797 20.4631C74.6859 19.9267 75.3975 19.6544 76.2952 19.6544C77.1655 19.6544 77.8586 19.9144 78.3552 20.4277C78.8542 20.9436 79.1073 21.7136 79.1073 22.7168C79.1073 23.7324 78.8691 24.5125 78.3996 25.0343C77.9333 25.5522 77.2324 25.8153 76.3153 25.8153ZM76.4273 17.8332C74.6881 17.8332 73.3069 18.285 72.3228 19.1763C71.3387 20.0676 70.8395 21.3011 70.8395 22.8427C70.8395 24.3076 71.3268 25.4848 72.2875 26.3429C73.2482 27.2012 74.5554 27.6361 76.1729 27.6361C77.8581 27.6361 79.212 27.1779 80.1963 26.2743C81.1802 25.3717 81.679 24.1499 81.679 22.6443C81.679 21.1571 81.2111 19.9705 80.2877 19.1181C79.3638 18.2654 78.0649 17.8332 76.4273 17.8332ZM67.0279 19.6781V18.0585H64.5476V27.4106H67.0279V22.6266C67.0279 21.8131 67.2359 21.1448 67.6462 20.6401C68.0514 20.1413 68.5912 19.8886 69.2504 19.8886C69.4738 19.8886 69.7246 19.9212 69.9962 19.9859C70.265 20.0501 70.4597 20.1199 70.5745 20.1933L70.6788 20.2603V18.0425L70.6386 18.0272C70.4076 17.9401 70.0808 17.8962 69.6674 17.8962C69.0441 17.8962 68.4863 18.0738 68.0085 18.4236C67.5891 18.731 67.2861 19.1525 67.0543 19.6781H67.0279ZM60.1057 17.8332C58.9678 17.8332 57.9528 18.0496 57.0895 18.4762C56.2244 18.9038 55.5554 19.5143 55.1002 20.2905C54.647 21.0649 54.4169 21.9694 54.4169 22.9782C54.4169 23.8618 54.64 24.6727 55.0809 25.3874C55.5221 26.1033 56.1465 26.6633 56.9369 27.0517C57.7263 27.4397 58.6385 27.6364 59.6486 27.6364C60.8274 27.6364 61.8338 27.4273 62.6407 27.0151L62.6733 26.9985V24.9831L62.569 25.0506C62.2035 25.2868 61.7951 25.4752 61.3556 25.611C60.9172 25.7467 60.5175 25.8153 60.167 25.8153C59.1938 25.8153 58.4125 25.5452 57.8453 25.0127C57.277 24.4795 56.9888 23.7308 56.9888 22.7886C56.9888 21.8406 57.2893 21.0726 57.8816 20.5059C58.4721 19.941 59.2548 19.6544 60.208 19.6544C61.0232 19.6544 61.8176 19.8992 62.5693 20.3828L62.6733 20.4498V18.3262L62.6397 18.3094C62.3568 18.169 61.9711 18.053 61.4922 17.9651C61.0153 17.8774 60.5489 17.8332 60.1057 17.8332ZM52.7086 18.0585H50.2283V27.4106H52.7086V18.0585ZM51.4938 14.0745C51.0856 14.0745 50.7295 14.1978 50.437 14.442C50.1432 14.687 49.9943 14.9954 49.9943 15.3593C49.9943 15.7175 50.1415 16.0203 50.4324 16.2587C50.7215 16.4965 51.0787 16.617 51.4939 16.617C51.909 16.617 52.2675 16.4965 52.5601 16.2591C52.8545 16.0203 53.0038 15.7176 53.0038 15.3593C53.0038 15.0081 52.8585 14.7029 52.5722 14.4519C52.2861 14.2014 51.9232 14.0745 51.4938 14.0745ZM45.3052 17.3685V27.4106H47.8365V14.3608H44.333L39.8799 24.0538L35.5584 14.3608H31.9124V27.4105H34.2911V17.3676H34.3728L38.9362 27.4106H40.7313L45.2235 17.3685H45.3052Z" fill="#434343"/>
<path d="M11.6683 20.3489H0V10H11.6683V20.3489Z" fill="#434343"/>
<path d="M24.5514 20.3489H12.8833V10H24.5514V20.3489Z" fill="#434343"/>
<path d="M11.668 31.7794H0V21.4305H11.668V31.7794Z" fill="#434343"/>
<path d="M24.5514 31.7794H12.8833V21.4305H24.5514V31.7794Z" fill="#434343"/>
</mask>
<g mask="url(#mask0_6219_1116)">
<rect x="-19.4535" y="-17.2454" width="137" height="85" fill="#434343"/>
</g>
</svg>
