<svg width="116" height="42" viewBox="0 0 116 42" fill="none" xmlns="http://www.w3.org/2000/svg">
<path fill-rule="evenodd" clip-rule="evenodd" d="M112.944 26.8256C112.944 26.6854 112.874 26.5379 112.733 26.4675C112.591 26.3935 112.432 26.3862 112.273 26.3862H111.451V28.0473H111.681V27.2811H112.105L112.644 28.0473H112.918L112.348 27.2811C112.684 27.2728 112.944 27.1524 112.944 26.8256ZM112.034 27.1211H111.68V26.5337H112.219C112.453 26.5337 112.71 26.565 112.71 26.8219C112.711 27.1602 112.299 27.1211 112.034 27.1211ZM102.182 18.7949L105.634 15.5504C105.834 15.3122 105.933 15.1455 105.933 15.0026C105.933 14.7645 105.701 14.6691 104.969 14.6691H104.098V12.6208H113.524V14.6691H112.286C110.856 14.6691 110.59 14.8593 108.594 17.0744L103.134 22.2656V25.4335C103.134 26.2439 103.598 26.529 104.929 26.529H106.991V28.5054H93.7877V26.529H95.8492C97.1789 26.529 97.6448 26.2439 97.6448 25.4335V22.2656L91.2135 16.0023C90.1508 14.9073 90.2976 14.6691 87.3386 14.6691V12.6208H99.2788V14.6691H98.4287C97.5637 14.6691 97.1972 14.8119 97.1972 15.0975C97.1972 15.3362 97.4631 15.5264 97.6294 15.7167L100.883 18.8387C101.27 19.1926 101.742 19.2384 102.182 18.7949ZM22.0695 12.6202H24.9498V18.3357H22.2898C22.0541 17.1933 21.2418 16.7487 20.5012 16.1493C19.165 15.0683 16.2711 14.1682 13.8372 14.1682C10.6959 14.1682 8.04475 15.0261 8.04475 16.2874C8.04475 19.7888 26.0101 17.0025 26.0101 23.6228C26.0101 27.0758 22.1619 29.0047 15.251 29.0047C12.8586 29.0047 9.23829 28.3511 7.10222 27.3525C6.43263 27.0122 6.14845 27.6746 6.02294 28.5049H3.06986V22.5986H5.74113C6.33021 24.0992 7.14189 24.4082 7.88845 25.004C9.18383 26.0521 12.2672 26.8146 15.0947 26.7901C19.358 26.7531 20.8239 25.9328 20.8239 24.7418C20.8239 23.5514 19.374 23.2652 14.7022 22.6226L10.7356 22.0509C6.25916 21.4551 3 20.5743 3 17.4309C3 14.1682 7.12295 12.1199 13.6419 12.1199C16.3889 12.1199 18.6872 12.443 20.8931 13.5407C21.5041 13.8904 22.0772 13.9321 22.0695 12.6202ZM78.2799 22.1895L78.3367 15.8371C78.3367 15.0037 77.8441 14.7181 76.4369 14.7181H74.7833V12.7417H85.3038V14.7181H83.9327C82.5242 14.7181 82.0316 15.0042 82.0316 15.8371V28.6258L77.914 28.5971L64.579 17.4804V25.5538C64.579 26.3638 65.0715 26.6729 66.4788 26.6729H68.3094V28.6258H57.3833V26.6729H59.1938C60.6011 26.6729 61.0936 26.3633 61.0936 25.5538V15.8371C61.0936 15.0037 60.6011 14.7181 59.1938 14.7181H57.3833V12.7417H66.8299L78.2799 22.1895ZM43.0401 12C34.6556 12 29.4072 15.2632 29.4072 20.5018C29.4072 25.6466 34.5828 28.8848 42.7843 28.8848C51.4955 28.8848 56.5628 25.694 56.5628 20.2402C56.5634 15.3346 51.0953 12 43.0401 12ZM42.8494 26.8136C38.2084 26.8136 35.5407 24.4557 35.5407 20.383C35.5407 16.4062 38.3245 14.0483 43.0815 14.0483C47.6449 14.0483 50.3126 16.4542 50.3126 20.5503C50.3126 24.5511 47.6058 26.8136 42.8494 26.8136Z" fill="#F40009"/>
<path fill-rule="evenodd" clip-rule="evenodd" d="M112.944 26.8256C112.944 26.6854 112.874 26.5379 112.733 26.4675C112.591 26.3935 112.432 26.3862 112.273 26.3862H111.451V28.0473H111.681V27.2811H112.105L112.644 28.0473H112.918L112.348 27.2811C112.684 27.2728 112.944 27.1524 112.944 26.8256ZM112.034 27.1211H111.68V26.5337H112.219C112.453 26.5337 112.71 26.565 112.71 26.8219C112.711 27.1602 112.299 27.1211 112.034 27.1211ZM102.182 18.7949L105.634 15.5504C105.834 15.3122 105.933 15.1455 105.933 15.0026C105.933 14.7645 105.701 14.6691 104.969 14.6691H104.098V12.6208H113.524V14.6691H112.286C110.856 14.6691 110.59 14.8593 108.594 17.0744L103.134 22.2656V25.4335C103.134 26.2439 103.598 26.529 104.929 26.529H106.991V28.5054H93.7877V26.529H95.8492C97.1789 26.529 97.6448 26.2439 97.6448 25.4335V22.2656L91.2135 16.0023C90.1508 14.9073 90.2976 14.6691 87.3386 14.6691V12.6208H99.2788V14.6691H98.4287C97.5637 14.6691 97.1972 14.8119 97.1972 15.0975C97.1972 15.3362 97.4631 15.5264 97.6294 15.7167L100.883 18.8387C101.27 19.1926 101.742 19.2384 102.182 18.7949ZM22.0695 12.6202H24.9498V18.3357H22.2898C22.0541 17.1933 21.2418 16.7487 20.5012 16.1493C19.165 15.0683 16.2711 14.1682 13.8372 14.1682C10.6959 14.1682 8.04475 15.0261 8.04475 16.2874C8.04475 19.7888 26.0101 17.0025 26.0101 23.6228C26.0101 27.0758 22.1619 29.0047 15.251 29.0047C12.8586 29.0047 9.23829 28.3511 7.10222 27.3525C6.43263 27.0122 6.14845 27.6746 6.02294 28.5049H3.06986V22.5986H5.74113C6.33021 24.0992 7.14189 24.4082 7.88845 25.004C9.18383 26.0521 12.2672 26.8146 15.0947 26.7901C19.358 26.7531 20.8239 25.9328 20.8239 24.7418C20.8239 23.5514 19.374 23.2652 14.7022 22.6226L10.7356 22.0509C6.25916 21.4551 3 20.5743 3 17.4309C3 14.1682 7.12295 12.1199 13.6419 12.1199C16.3889 12.1199 18.6872 12.443 20.8931 13.5407C21.5041 13.8904 22.0772 13.9321 22.0695 12.6202ZM78.2799 22.1895L78.3367 15.8371C78.3367 15.0037 77.8441 14.7181 76.4369 14.7181H74.7833V12.7417H85.3038V14.7181H83.9327C82.5242 14.7181 82.0316 15.0042 82.0316 15.8371V28.6258L77.914 28.5971L64.579 17.4804V25.5538C64.579 26.3638 65.0715 26.6729 66.4788 26.6729H68.3094V28.6258H57.3833V26.6729H59.1938C60.6011 26.6729 61.0936 26.3633 61.0936 25.5538V15.8371C61.0936 15.0037 60.6011 14.7181 59.1938 14.7181H57.3833V12.7417H66.8299L78.2799 22.1895ZM43.0401 12C34.6556 12 29.4072 15.2632 29.4072 20.5018C29.4072 25.6466 34.5828 28.8848 42.7843 28.8848C51.4955 28.8848 56.5628 25.694 56.5628 20.2402C56.5634 15.3346 51.0953 12 43.0401 12ZM42.8494 26.8136C38.2084 26.8136 35.5407 24.4557 35.5407 20.383C35.5407 16.4062 38.3245 14.0483 43.0815 14.0483C47.6449 14.0483 50.3126 16.4542 50.3126 20.5503C50.3126 24.5511 47.6058 26.8136 42.8494 26.8136Z" fill="#434343"/>
</svg>
