<svg width="32" height="32" viewBox="0 0 32 32" fill="none" xmlns="http://www.w3.org/2000/svg">
<path d="M31.0844 7.60431C29.9578 8.05339 28.7629 8.34816 27.5393 8.47883C28.8138 7.79148 29.7924 6.70304 30.2532 5.40617C29.0416 6.05311 27.7161 6.50892 26.3339 6.7539C25.2079 5.67455 23.6039 5 21.8286 5C18.4199 5 15.6563 7.48672 15.6563 10.5538C15.6563 10.9891 15.7109 11.413 15.8161 11.8195C10.6865 11.5879 6.13855 9.37682 3.09427 6.01664C2.56309 6.83691 2.25873 7.79106 2.25873 8.80875C2.25873 10.7357 3.34846 12.4355 5.00451 13.4315C4.02436 13.4039 3.06577 13.1657 2.20878 12.7368C2.20843 12.7601 2.20843 12.7833 2.20843 12.8067C2.20843 15.4976 4.33596 17.7424 7.15942 18.2526C6.25053 18.475 5.29716 18.5076 4.37215 18.3478C5.15752 20.5543 7.437 22.1599 10.1378 22.2048C8.02541 23.6944 5.364 24.5823 2.47237 24.5823C1.9741 24.5823 1.48288 24.556 1 24.5047C3.73145 26.0805 6.97574 27 10.4613 27C21.8143 27 28.0223 18.5371 28.0223 11.1979C28.0223 10.957 28.0165 10.7175 28.0045 10.4793C29.2128 9.6933 30.2558 8.71973 31.0844 7.60431Z" fill="#D9D9D9"/>
</svg>
